<?xml version="1.0" standalone="no"?>
<!DOCTYPE svg PUBLIC "-//W3C//DTD SVG 1.1//EN" "http://www.w3.org/Graphics/SVG/1.1/DTD/svg11.dtd" >
<svg xmlns="http://www.w3.org/2000/svg">
<metadata></metadata>
<defs>
<font id="avenir_next_rounded_proRg" horiz-adv-x="1187" >
<font-face units-per-em="2048" ascent="1536" descent="-512" />
<missing-glyph horiz-adv-x="512" />
<glyph unicode="&#xfb01;" horiz-adv-x="1112" d="M10 901q0 20 15 38.5t51 18.5h149v263q0 166 82.5 259t243.5 93q39 0 64.5 -6.5t36 -18t13.5 -20.5t3 -21q0 -21 -15 -40t-53 -19q-5 0 -23.5 1t-31.5 1q-54 0 -91 -18t-55.5 -53.5t-26 -76.5t-7.5 -98v-246h174q36 0 50.5 -18.5t14.5 -38.5q0 -21 -14.5 -40t-50.5 -19 h-174v-781q0 -30 -13.5 -48t-27.5 -22.5t-29 -4.5t-29 4.5t-27.5 22.5t-13.5 48v781h-149q-36 0 -51 19t-15 40zM758 1327q0 41 30 69.5t68 28.5t68 -28.5t30 -69.5t-30 -69.5t-68 -28.5t-68 28.5t-30 69.5zM786 61v836q0 43 22 59.5t48 16.5q15 0 29 -4.5t27.5 -23 t13.5 -48.5v-836q0 -30 -13.5 -48t-27.5 -22.5t-29 -4.5t-29 4.5t-27.5 22.5t-13.5 48z" />
<glyph unicode="&#xfb02;" horiz-adv-x="1114" d="M10 901q0 20 15 38.5t51 18.5h149v263q0 166 82.5 259t243.5 93q39 0 64.5 -6.5t36 -18t13.5 -20.5t3 -21q0 -21 -15 -40t-53 -19q-5 0 -23.5 1t-31.5 1q-54 0 -91 -18t-55.5 -53.5t-26 -76.5t-7.5 -98v-246h174q36 0 50.5 -18.5t14.5 -38.5q0 -21 -14.5 -40t-50.5 -19 h-174v-781q0 -30 -13.5 -48t-27.5 -22.5t-29 -4.5t-29 4.5t-27.5 22.5t-13.5 48v781h-149q-36 0 -51 19t-15 40zM786 61v1426q0 43 22 59.5t48 16.5q15 0 29 -4.5t27.5 -23t13.5 -48.5v-1426q0 -30 -13.5 -48t-27.5 -22.5t-29 -4.5t-29 4.5t-27.5 22.5t-13.5 48z" />
<glyph horiz-adv-x="1003" />
<glyph horiz-adv-x="1003" />
<glyph horiz-adv-x="682" />
<glyph unicode="&#xd;" horiz-adv-x="0" />
<glyph unicode=" "  horiz-adv-x="512" />
<glyph unicode="&#x09;" horiz-adv-x="512" />
<glyph unicode="&#xa0;" horiz-adv-x="512" />
<glyph unicode="!" horiz-adv-x="671" d="M225 98q0 44 31.5 77.5t79.5 33.5t79 -33.5t31 -77.5t-31 -77t-79 -33t-79.5 33t-31.5 77zM262 461v921q0 46 23.5 64t50.5 18t50.5 -18t23.5 -64v-921q0 -46 -23.5 -64t-50.5 -18t-50.5 18t-23.5 64z" />
<glyph unicode="&#x22;" horiz-adv-x="829" d="M205 1022v375q0 38 19.5 52.5t41.5 14.5q13 0 25.5 -4.5t24.5 -20.5t12 -42v-375q0 -38 -20 -53t-42 -15t-41.5 15t-19.5 53zM502 1022v375q0 38 19.5 52.5t41.5 14.5q13 0 25.5 -4.5t24.5 -20.5t12 -42v-375q0 -38 -20 -53t-42 -15t-41.5 15t-19.5 53z" />
<glyph unicode="#" horiz-adv-x="1138" d="M51 500q0 21 14.5 41t53.5 20h178l45 332h-168q-39 0 -53.5 20t-14.5 41t14.5 41.5t53.5 20.5h186l54 387q4 34 21.5 47.5t37.5 13.5q27 0 45.5 -15t18.5 -44q0 -13 -2 -27l-50 -362h273l53 387q4 34 21.5 47.5t37.5 13.5q27 0 45.5 -15t18.5 -44q0 -13 -2 -27l-49 -362 h131q27 0 43 -12.5t20 -25t4 -24.5q0 -9 -2.5 -17.5t-8.5 -19.5t-20.5 -17.5t-35.5 -6.5h-150l-45 -332h142q21 0 35.5 -6.5t20.5 -17.5t8.5 -19.5t2.5 -17.5q0 -12 -4 -24.5t-20 -25t-43 -12.5h-158l-55 -391q-10 -61 -60 -61q-27 0 -45 15t-18 44q0 13 2 27l51 366h-272 l-56 -391q-10 -61 -59 -61q-27 0 -45.5 15t-18.5 44q0 13 2 27l52 366h-162q-39 0 -53.5 20.5t-14.5 41.5zM422 561h272l45 332h-272z" />
<glyph unicode="$" d="M129 199q0 27 19.5 44t46.5 17q31 0 67 -39q53 -57 134 -91t143 -36v588q-64 20 -113.5 40t-105 54.5t-92.5 75t-61 101t-24 132.5q0 172 114.5 277t281.5 113v106q0 31 15.5 43t33.5 12t33.5 -12t15.5 -43v-106q202 -9 324 -119q30 -28 30 -60q0 -28 -16.5 -44.5 t-44.5 -16.5q-29 0 -62 31q-101 91 -231 94v-563q72 -25 124 -47.5t111 -60t95.5 -80.5t61 -106.5t24.5 -140.5q0 -168 -118.5 -276t-297.5 -111v-106q0 -31 -15.5 -43t-33.5 -12t-33.5 12t-15.5 43v106q-228 6 -385 166q-25 27 -25 58zM285 1098q0 -198 254 -267v529 q-108 -3 -181 -76t-73 -186zM637 94q48 2 93 17.5t85.5 46.5t65 86.5t24.5 128.5q0 100 -72.5 172.5t-195.5 111.5v-563z" />
<glyph unicode="%" horiz-adv-x="1705" d="M78 1116q0 151 104 255t256 104t256.5 -104t104.5 -255t-104.5 -254.5t-256.5 -103.5t-256 103.5t-104 254.5zM201 1116q0 -100 69.5 -167.5t167.5 -67.5t168 67.5t70 167.5t-70 168t-168 68t-167.5 -68t-69.5 -168zM354 0q0 18 13 39l868 1431q22 35 55 35 q25 0 42.5 -15.5t17.5 -41.5q0 -18 -13 -39l-868 -1432q-21 -34 -55 -34q-25 0 -42.5 15.5t-17.5 41.5zM907 334q0 151 104.5 254.5t256.5 103.5t256 -103.5t104 -254.5t-104 -255t-256 -104t-256.5 104t-104.5 255zM1030 334q0 -100 70 -168t168 -68t167.5 68t69.5 168 t-69.5 167.5t-167.5 67.5t-168 -67.5t-70 -167.5z" />
<glyph unicode="&#x26;" horiz-adv-x="1441" d="M100 377q0 281 330 428q-170 188 -170 340q0 158 103 250t258 92q150 0 250 -87.5t100 -238.5q0 -67 -27 -126.5t-77 -106t-102.5 -80.5t-121.5 -68l340 -336l188 314q25 41 64 41q29 0 50.5 -18t21.5 -48q0 -22 -15 -49l-211 -336l236 -231q29 -29 29 -58 q0 -30 -20.5 -51.5t-51.5 -21.5q-38 0 -62 28l-206 209q-94 -131 -200.5 -189.5t-252.5 -58.5q-194 0 -323.5 107t-129.5 295zM252 375q0 -121 88 -199t215 -78q114 0 194 52t158 172l-389 391q-136 -62 -201 -144t-65 -194zM403 1143q0 -116 154 -277q123 56 196.5 126 t73.5 169q0 89 -58 147t-146 58q-96 0 -158 -61.5t-62 -161.5z" />
<glyph unicode="'" horiz-adv-x="532" d="M205 1022v375q0 38 19.5 52.5t41.5 14.5q13 0 25.5 -4.5t24.5 -20.5t12 -42v-375q0 -38 -20 -53t-42 -15t-41.5 15t-19.5 53z" />
<glyph unicode="(" horiz-adv-x="614" d="M66 590q0 240 73.5 470t194.5 402q24 35 57 35q28 0 46 -17.5t18 -43.5q0 -19 -17 -47q-108 -167 -172.5 -376.5t-64.5 -422.5t64.5 -422.5t172.5 -376.5q17 -28 17 -47q0 -26 -18 -43.5t-46 -17.5q-34 0 -57 34q-121 171 -194.5 402t-73.5 471z" />
<glyph unicode=")" horiz-adv-x="614" d="M160 -256q0 21 16 47q108 168 173 377t65 422t-65 422t-173 377q-16 26 -16 47q0 26 17.5 43.5t45.5 17.5q34 0 58 -35q121 -172 194.5 -402t73.5 -470t-73.5 -471t-194.5 -402q-23 -34 -58 -34q-28 0 -45.5 17.5t-17.5 43.5z" />
<glyph unicode="*" horiz-adv-x="909" d="M72 1176q0 26 15.5 43.5t41.5 17.5q17 0 35 -6l229 -74v240q0 37 20 52t42 15t41.5 -14.5t19.5 -52.5v-240l229 74q18 6 35 6q26 0 42 -18t16 -43q0 -44 -50 -60l-231 -74l152 -204q18 -26 18 -47q0 -26 -18 -43t-45 -17q-30 0 -52 31l-157 213l-158 -213 q-24 -31 -51 -31t-45.5 17t-18.5 43q0 20 19 47l151 204l-231 74q-49 16 -49 60z" />
<glyph unicode="+" horiz-adv-x="1363" d="M145 621q0 21 14.5 41t53.5 20h408v408q0 38 19.5 52.5t41.5 14.5t41.5 -14.5t19.5 -52.5v-408h408q39 0 53.5 -20t14.5 -41t-14.5 -41.5t-53.5 -20.5h-408v-407q0 -38 -19.5 -53t-41.5 -15t-41.5 15t-19.5 53v407h-408q-39 0 -53.5 20.5t-14.5 41.5z" />
<glyph unicode="," horiz-adv-x="532" d="M100 -238q0 17 6 37l109 351q17 59 70 59q30 0 50.5 -19t20.5 -49q0 -11 -6 -32l-117 -357q-17 -53 -63 -53q-28 0 -49 17t-21 46z" />
<glyph unicode="-" horiz-adv-x="655" d="M84 498q0 20 15 38.5t51 18.5h356q36 0 50.5 -18.5t14.5 -38.5q0 -22 -14.5 -41t-50.5 -19h-356q-36 0 -51 19.5t-15 40.5z" />
<glyph unicode="." horiz-adv-x="532" d="M156 98q0 44 31 77.5t79 33.5t79.5 -33.5t31.5 -77.5t-31.5 -77t-79.5 -33t-79 33t-31 77z" />
<glyph unicode="/" horiz-adv-x="757" d="M27 25q0 12 6 30l579 1387q17 43 56 43q26 0 45.5 -16t19.5 -44q0 -12 -6 -30l-580 -1387q-17 -43 -55 -43q-26 0 -45.5 16t-19.5 44z" />
<glyph unicode="0" d="M119 723q0 119 14 225t48.5 206.5t87 172.5t136 116t189.5 44q104 0 187 -43.5t136 -116t88 -173t49.5 -207t14.5 -224.5t-14.5 -224t-49.5 -206t-88 -171.5t-136 -115t-187 -43.5q-106 0 -189 43.5t-136 115t-87.5 171.5t-48.5 205.5t-14 224.5zM268 723q0 -93 9 -177.5 t32 -169.5t58.5 -147t94 -100.5t132.5 -38.5q73 0 131 38.5t94 100.5t59.5 147t32.5 170t9 177t-9 178t-32.5 171.5t-59.5 148.5t-94 102t-131 39q-62 0 -113.5 -27t-86 -75t-60 -108.5t-39.5 -134.5t-20.5 -146t-6.5 -148z" />
<glyph unicode="1" d="M246 1126q0 32 30 56l291 239q51 43 88 43q29 0 53.5 -18.5t24.5 -67.5v-1310q0 -46 -23.5 -64t-50.5 -18t-50 18t-23 64v1200l-221 -189q-25 -22 -52 -22q-28 0 -47.5 19.5t-19.5 49.5z" />
<glyph unicode="2" d="M90 84q0 38 45 86l563 584q80 82 127 161.5t47 169.5q0 123 -83 200t-203 77q-97 0 -171 -53t-110 -142q-28 -67 -76 -67q-30 0 -50.5 16.5t-20.5 50.5q0 24 8 45q47 121 160.5 198t259.5 77q119 0 216.5 -44t158.5 -136.5t61 -219.5q0 -67 -17.5 -127t-54 -116 t-72.5 -97.5t-92 -97.5l-514 -518h703q40 0 56 -21t16 -44t-16 -44.5t-56 -21.5h-787q-30 0 -51 9t-30.5 23.5t-13 26.5t-3.5 25z" />
<glyph unicode="3" d="M123 238q0 29 20 48t50 19q37 0 71 -51q108 -164 295 -164q84 0 156.5 36.5t118 108.5t45.5 166q0 79 -31.5 138t-87 92t-122 49t-144.5 16q-39 0 -54.5 21t-15.5 43t15.5 42.5t54.5 20.5q157 0 251.5 65t94.5 202q0 119 -83.5 195.5t-203.5 76.5q-157 0 -248 -123 q-26 -35 -59 -35q-30 0 -50 18t-20 48q0 27 21 53q134 164 364 164q116 0 210.5 -43.5t154 -133.5t59.5 -212q0 -124 -70.5 -213t-181.5 -119v-4q129 -27 211 -123t82 -238q0 -134 -64.5 -235t-170 -152t-232.5 -51q-136 0 -245 58t-175 165q-16 26 -16 52z" />
<glyph unicode="4" d="M72 436q0 36 32 86l592 875q44 67 103 67q33 0 63.5 -24.5t30.5 -85.5v-875h156q40 0 55.5 -21t15.5 -42q0 -13 -4.5 -26.5t-21.5 -26.5t-45 -13h-156v-282q0 -46 -22.5 -64t-49.5 -18t-49 18t-22 64v282h-580q-55 0 -76.5 27t-21.5 59zM240 479h510v762h-5z" />
<glyph unicode="5" d="M137 211q0 29 21 48.5t51 19.5q36 0 65 -41q46 -70 116 -109t151 -39q147 0 243.5 98t96.5 246q0 159 -101.5 253.5t-259.5 94.5q-84 0 -176 -28q-47 -15 -61 -15q-12 0 -25 4t-25.5 20.5t-11.5 43.5l10 555q3 88 88 88h596q40 0 56 -21.5t16 -44.5t-16 -44t-56 -21h-546 l-11 -449q88 33 201 33q205 0 338 -126.5t133 -327.5q0 -212 -133.5 -349t-347.5 -137q-129 0 -228 51t-163 142q-21 30 -21 55z" />
<glyph unicode="6" d="M123 420q0 180 131 393l383 610q25 41 63 41q30 0 52 -18.5t22 -48.5q0 -23 -18 -51l-344 -529l4 -4q31 24 90 38.5t117 14.5q191 0 316.5 -125t125.5 -321q0 -201 -133 -329t-338 -128t-338 128t-133 329zM270 420q0 -142 91.5 -237t232.5 -95t232.5 95t91.5 237 t-88.5 235t-235.5 93t-235.5 -93t-88.5 -235z" />
<glyph unicode="7" d="M143 1384q0 23 16 44.5t56 21.5h731q27 0 45.5 -9t27 -23t12 -26t3.5 -24q0 -23 -16 -59l-567 -1268q-24 -55 -72 -55q-32 0 -54 19t-22 52q0 20 10 45l557 1217h-655q-40 0 -56 21t-16 44z" />
<glyph unicode="8" d="M129 381q0 143 76 247t198 140v4q-97 32 -158 123.5t-61 204.5q0 172 119.5 279.5t290.5 107.5t290.5 -107.5t119.5 -279.5q0 -112 -61.5 -204t-158.5 -124v-4q121 -35 198 -139.5t77 -247.5q0 -93 -38 -172t-101.5 -132.5t-148 -83.5t-177.5 -30t-177.5 30t-148 83.5 t-101.5 132.5t-38 172zM276 397q0 -134 88.5 -221.5t229.5 -87.5t229 87.5t88 221.5q0 132 -88 217.5t-229 85.5t-229.5 -85.5t-88.5 -217.5zM328 1092q0 -113 77 -187t189 -74t189 74t77 187q0 117 -76 193.5t-190 76.5t-190 -76.5t-76 -193.5z" />
<glyph unicode="9" d="M127 1030q0 201 133 329t338 128t338 -128t133 -329q0 -180 -131 -393l-383 -610q-25 -41 -63 -41q-30 0 -52 18.5t-22 48.5q0 23 18 51l344 529l-4 4q-31 -24 -90 -38.5t-117 -14.5q-191 0 -316.5 125t-125.5 321zM274 1030q0 -142 88.5 -235t235.5 -93t235.5 93 t88.5 235t-91.5 237t-232.5 95t-232.5 -95t-91.5 -237z" />
<glyph unicode=":" horiz-adv-x="614" d="M197 98q0 44 31 77.5t79 33.5t79.5 -33.5t31.5 -77.5t-31.5 -77t-79.5 -33t-79 33t-31 77zM197 860q0 44 31 77.5t79 33.5t79.5 -33.5t31.5 -77.5t-31.5 -77t-79.5 -33t-79 33t-31 77z" />
<glyph unicode=";" horiz-adv-x="614" d="M129 -238q0 17 6 37l109 351q17 59 69 59q30 0 51 -19t21 -49q0 -11 -6 -32l-117 -357q-17 -53 -63 -53q-28 0 -49 17t-21 46zM197 860q0 44 31 77.5t79 33.5t79.5 -33.5t31.5 -77.5t-31.5 -77t-79.5 -33t-79 33t-31 77z" />
<glyph unicode="&#x3c;" horiz-adv-x="1363" d="M145 621q0 42 45 61l930 434q28 12 45 12q23 0 38.5 -16t15.5 -39q0 -34 -37 -51l-856 -401l856 -402q37 -17 37 -51q0 -23 -15.5 -39t-38.5 -16q-17 0 -45 12l-930 434q-45 19 -45 62z" />
<glyph unicode="=" horiz-adv-x="1363" d="M145 467q0 21 14.5 41t53.5 20h938q39 0 53.5 -20t14.5 -41t-14.5 -41t-53.5 -20h-938q-39 0 -53.5 20t-14.5 41zM145 774q0 21 14.5 41.5t53.5 20.5h938q39 0 53.5 -20.5t14.5 -41.5t-14.5 -41t-53.5 -20h-938q-39 0 -53.5 20t-14.5 41z" />
<glyph unicode="&#x3e;" horiz-adv-x="1363" d="M145 168q0 34 37 51l856 402l-856 401q-37 17 -37 51q0 23 15.5 39t38.5 16q17 0 45 -12l930 -434q45 -19 45 -61q0 -43 -45 -62l-930 -434q-28 -12 -45 -12q-23 0 -38.5 16t-15.5 39z" />
<glyph unicode="?" horiz-adv-x="987" d="M113 1169q0 20 8 41q45 124 146.5 194.5t240.5 70.5q171 0 284 -96.5t113 -264.5q0 -63 -13 -113t-43.5 -91.5t-57 -67.5t-74.5 -66q-49 -40 -74 -64.5t-46 -58t-28.5 -72t-7.5 -94.5v-26q0 -46 -22.5 -64t-49.5 -18t-49 18t-22 64v55q0 56 12.5 102.5t39 85t50.5 64 t62 59.5l57 52q57 49 88 101.5t31 125.5q0 112 -73 177t-183 65q-92 0 -159 -50.5t-95 -140.5q-17 -57 -68 -57q-29 0 -48 19t-19 50zM393 98q0 44 31.5 77.5t79.5 33.5t79 -33.5t31 -77.5t-31 -77t-79 -33t-79.5 33t-31.5 77z" />
<glyph unicode="@" horiz-adv-x="1638" d="M72 723q0 160 62 302.5t167 243.5t249 159.5t304 58.5q113 0 218.5 -25.5t198 -79.5t161 -130.5t108 -185.5t39.5 -237q0 -120 -32 -217t-87.5 -158t-126.5 -93.5t-151 -32.5q-86 0 -132 43t-46 106h-9q-25 -53 -95 -101t-161 -48q-136 0 -216.5 94t-80.5 244 q0 117 48.5 220.5t143.5 170.5t216 67q75 0 132.5 -35t80.5 -88h8l10 50q12 57 62 57q26 0 44.5 -15.5t18.5 -43.5q0 -13 -4 -31l-65 -305q-23 -106 -23 -164q0 -103 100 -103t164 106t64 263q0 173 -76.5 297.5t-208.5 186t-305 61.5q-138 0 -255.5 -49.5t-199 -135 t-127 -204t-45.5 -254.5q0 -288 177.5 -459.5t465.5 -171.5q297 0 506 172q27 21 47 21q25 0 42.5 -17t17.5 -43q0 -29 -25 -51q-237 -205 -602 -205q-231 0 -409.5 97t-275.5 270t-97 393zM592 657q0 -33 7.5 -66.5t24 -67.5t51 -55.5t81.5 -21.5q67 0 119 34.5t81 88 t43.5 111t14.5 111.5q0 42 -8 77t-26.5 66.5t-53 49t-82.5 17.5q-77 0 -136.5 -53.5t-87.5 -130.5t-28 -160z" />
<glyph unicode="A" horiz-adv-x="1433" d="M41 55q0 20 10 45l567 1282q35 82 101 82q65 0 100 -82l561 -1278q13 -30 13 -47q0 -31 -22 -51t-54 -20q-50 0 -72 53l-145 342h-770l-146 -344q-21 -51 -69 -51q-32 0 -53 19t-21 50zM387 516h655l-327 770z" />
<glyph unicode="B" horiz-adv-x="1302" d="M193 88v1274q0 88 88 88h344q70 0 133.5 -10.5t126 -37t107.5 -67t72.5 -106.5t27.5 -150q0 -114 -70.5 -199.5t-185.5 -111.5v-4q145 -15 236 -112t91 -251q0 -183 -145.5 -292t-394.5 -109h-342q-88 0 -88 88zM340 127h274q83 0 153 16t126.5 49t88.5 88.5t32 129.5 q0 141 -96.5 212.5t-276.5 71.5h-301v-567zM340 815h297q57 0 108.5 13t97.5 41t73.5 79.5t27.5 120.5q0 88 -48.5 147t-124 83t-175.5 24h-256v-508z" />
<glyph unicode="C" horiz-adv-x="1474" d="M115 725q0 162 57.5 304t157.5 242.5t240 158t300 57.5q135 0 258.5 -44.5t204.5 -127.5q27 -27 27 -55q0 -30 -20.5 -51t-53.5 -21q-35 0 -74 39q-57 57 -147.5 94t-192.5 37q-182 0 -321 -88.5t-210 -231t-71 -313.5q0 -127 42 -241.5t118.5 -201.5t191 -138.5 t250.5 -51.5q115 0 218 42.5t174 127.5q32 37 63 37q28 0 48 -19t20 -49q0 -27 -25 -55q-189 -213 -500 -213q-216 0 -388.5 98t-269.5 272.5t-97 391.5z" />
<glyph unicode="D" horiz-adv-x="1550" d="M193 88v1274q0 88 88 88h393q110 0 218 -28.5t206.5 -88.5t173.5 -144t119.5 -204t44.5 -260t-44.5 -260t-119.5 -204t-173.5 -144t-206.5 -88.5t-218 -28.5h-393q-88 0 -88 88zM340 131h293q158 0 284 50.5t204 135t118.5 189t40.5 219.5t-40.5 219.5t-118.5 189 t-204 135t-284 50.5h-293v-1188z" />
<glyph unicode="E" horiz-adv-x="1212" d="M193 88v1274q0 88 88 88h753q40 0 56 -21.5t16 -44.5t-16 -44t-56 -21h-694v-500h645q40 0 56 -21t16 -42q0 -23 -16 -44.5t-56 -21.5h-645v-559h719q40 0 55.5 -21t15.5 -44q0 -13 -4.5 -26.5t-21.5 -26.5t-45 -13h-778q-88 0 -88 88z" />
<glyph unicode="F" horiz-adv-x="1150" d="M193 68v1294q0 88 88 88h729q40 0 55.5 -21.5t15.5 -44.5q0 -13 -4.5 -26t-21.5 -26t-45 -13h-670v-504h618q40 0 56 -21t16 -42q0 -23 -16 -44.5t-56 -21.5h-618v-618q0 -46 -23.5 -64t-50.5 -18t-50 18t-23 64z" />
<glyph unicode="G" horiz-adv-x="1595" d="M115 725q0 162 57.5 304t157.5 242.5t240 158t300 57.5q284 0 467 -146q33 -26 33 -59q0 -31 -19.5 -50.5t-50.5 -19.5q-29 0 -61 27q-146 119 -367 119q-136 0 -250.5 -51.5t-191 -138.5t-118.5 -201.5t-42 -241.5t42 -241.5t118.5 -201t191 -137.5t250.5 -51 q120 0 223.5 25.5t168.5 68.5v441h-281q-40 0 -56 21t-16 44q0 21 16 42.5t56 21.5h340q88 0 88 -88v-506q0 -38 -16.5 -59t-59.5 -42q-214 -100 -465 -100q-216 0 -388.5 98t-269.5 272.5t-97 391.5z" />
<glyph unicode="H" horiz-adv-x="1470" d="M193 68v1314q0 46 23 64t50 18t50.5 -18t23.5 -64v-561h790v561q0 46 23.5 64t50.5 18t50.5 -18t23.5 -64v-1314q0 -46 -23.5 -64t-50.5 -18t-50.5 18t-23.5 64v618h-790v-618q0 -46 -23.5 -64t-50.5 -18t-50 18t-23 64z" />
<glyph unicode="I" horiz-adv-x="532" d="M193 68v1314q0 46 23 64t50 18t50.5 -18t23.5 -64v-1314q0 -46 -23.5 -64t-50.5 -18t-50 18t-23 64z" />
<glyph unicode="J" horiz-adv-x="1007" d="M66 225q0 28 19 47t48 19q43 0 72 -55q75 -144 219 -144q256 0 256 336v954q0 46 23.5 64t50.5 18t50 -18t23 -64v-964q0 -62 -9.5 -120t-36 -121t-68 -108.5t-112 -75.5t-161.5 -30q-134 0 -226 58.5t-136 154.5q-12 24 -12 49z" />
<glyph unicode="K" horiz-adv-x="1286" d="M193 68v1314q0 46 23 64t50 18t50.5 -18t23.5 -64v-583h2l715 639q28 26 59 26q30 0 50 -19.5t20 -47.5q0 -34 -31 -60l-643 -544l686 -668q31 -31 31 -62q0 -34 -22.5 -55.5t-57.5 -21.5q-32 0 -62 30l-745 756h-2v-704q0 -46 -23.5 -64t-50.5 -18t-50 18t-23 64z" />
<glyph unicode="L" horiz-adv-x="1044" d="M193 88v1294q0 46 23 64t50 18t50.5 -18t23.5 -64v-1251h618q40 0 56 -21t16 -44t-16 -44.5t-56 -21.5h-677q-88 0 -88 88z" />
<glyph unicode="M" horiz-adv-x="1814" d="M193 68v1296q0 39 17 63t35.5 30.5t37.5 6.5q65 0 100 -80l526 -1202h2l521 1202q35 80 100 80q19 0 37.5 -6.5t35.5 -30.5t17 -63v-1296q0 -46 -23.5 -64t-50.5 -18t-50 18t-23 64v1062h-5l-473 -1081q-27 -63 -90 -63t-90 63l-473 1075h-4v-1056q0 -46 -23.5 -64 t-50.5 -18t-50 18t-23 64z" />
<glyph unicode="N" horiz-adv-x="1564" d="M193 68v1282q0 64 30 89t66 25q30 0 57.5 -18t65.5 -72l809 -1132h4v1140q0 46 23 64t50 18t50.5 -18t23.5 -64v-1282q0 -34 -10 -58t-26.5 -35.5t-31.5 -16t-30 -4.5q-30 0 -56.5 18t-64.5 72l-809 1145h-4v-1153q0 -46 -23.5 -64t-50.5 -18t-50 18t-23 64z" />
<glyph unicode="O" horiz-adv-x="1740" d="M115 725q0 162 57.5 304t157.5 242.5t240 158t300 57.5q213 0 386 -98t271.5 -272.5t98.5 -391.5t-98.5 -391.5t-271.5 -272.5t-386 -98q-160 0 -300 57.5t-240 158t-157.5 242.5t-57.5 304zM270 725q0 -127 42 -241.5t117.5 -201t190 -137.5t250.5 -51t250.5 51 t190 137.5t117.5 201t42 241.5q0 171 -71 313.5t-209.5 231t-319.5 88.5t-319.5 -88.5t-209.5 -231t-71 -313.5z" />
<glyph unicode="P" d="M193 68v1294q0 88 88 88h321q228 0 359 -98.5t131 -288.5t-133 -289.5t-361 -99.5h-258v-606q0 -46 -23.5 -64t-50.5 -18t-50 18t-23 64zM340 799h250q172 0 263 67.5t91 196.5q0 131 -91.5 195.5t-262.5 64.5h-250v-524z" />
<glyph unicode="Q" horiz-adv-x="1726" d="M115 743q0 159 56 297.5t153 236.5t233 154t291 56t290.5 -56t232 -154t152.5 -236.5t56 -297.5q0 -194 -87 -353.5t-253 -254.5v-4h381q40 0 56 -21t16 -44t-16 -44.5t-56 -21.5h-772q-207 0 -375 95.5t-263 265.5t-95 382zM270 743q0 -123 40.5 -233.5t113 -195.5 t183 -135t241.5 -50q130 0 240 50t183.5 134.5t114.5 196t41 233.5t-41 233.5t-114.5 196.5t-183.5 135t-240 50q-131 0 -241.5 -50t-183 -135t-113 -196t-40.5 -234z" />
<glyph unicode="R" horiz-adv-x="1226" d="M193 68v1294q0 88 88 88h337q111 0 199 -21t156 -66t104.5 -121t36.5 -179q0 -157 -103.5 -256t-267.5 -117l377 -579q17 -25 17 -52q0 -32 -21.5 -52.5t-56.5 -20.5q-42 0 -68 41l-405 651h-246v-610q0 -46 -23.5 -64t-50.5 -18t-50 18t-23 64zM340 805h256 q179 0 275 65t96 193q0 260 -365 260h-262v-518z" />
<glyph unicode="S" horiz-adv-x="1155" d="M131 180q0 29 20.5 50.5t51.5 21.5q30 0 57 -27q135 -135 301 -135q78 0 150 30.5t122 96.5t50 154q0 72 -24.5 123t-87 88t-102.5 52.5t-136 45.5q-3 1 -5 2q-47 14 -83 27t-78.5 33t-73.5 41.5t-61.5 52.5t-49.5 66.5t-31 82.5t-12 102q0 81 28 149t73.5 113.5 t106.5 77t125 46t130 14.5q113 0 208 -34.5t153 -92.5q24 -24 24 -55q0 -28 -19.5 -48t-49.5 -20q-31 0 -66 31q-108 94 -256 94q-55 0 -108.5 -17t-99 -49t-73.5 -85.5t-28 -120.5q0 -30 6 -56.5t14 -47t26 -40.5t31 -33t40.5 -28t43 -23t50 -21t50.5 -18.5t54 -17.5 q161 -54 223 -86q156 -81 193 -225q14 -52 14 -113q0 -84 -27.5 -154.5t-73 -118.5t-107 -81.5t-128.5 -48.5t-137 -15q-239 0 -397 152q-31 31 -31 65z" />
<glyph unicode="T" horiz-adv-x="1167" d="M10 1384q0 23 16 44.5t56 21.5h1003q40 0 56 -21.5t16 -44.5t-16 -44t-56 -21h-428v-1251q0 -46 -23 -64t-50 -18t-50.5 18t-23.5 64v1251h-428q-40 0 -56 21t-16 44z" />
<glyph unicode="U" horiz-adv-x="1454" d="M184 541v841q0 46 23.5 64t50.5 18t50.5 -18t23.5 -64v-825q0 -73 12.5 -138t42 -125.5t74 -104t112.5 -69.5t154 -26t154 26t112.5 69.5t74 104t42 125.5t12.5 138v825q0 46 23.5 64t50.5 18t50.5 -18t23.5 -64v-841q0 -79 -14 -154t-52.5 -153.5t-97.5 -137t-156.5 -96 t-222.5 -37.5t-222.5 37.5t-156.5 96t-97.5 137t-52.5 153.5t-14 154z" />
<glyph unicode="V" horiz-adv-x="1275" d="M27 1395q0 30 20.5 49.5t52.5 19.5q51 0 72 -55l465 -1219h4l463 1219q21 55 72 55q32 0 52.5 -19.5t20.5 -49.5q0 -22 -10 -47l-498 -1278q-32 -84 -104 -84q-73 0 -105 84l-495 1278q-10 25 -10 47z" />
<glyph unicode="W" horiz-adv-x="1990" d="M41 1393q0 31 22 51t54 20q54 0 73 -65l349 -1196h4l348 1165q29 96 106 96q78 0 107 -96l348 -1165h4l344 1196q18 65 76 65q32 0 53 -20t21 -53q0 -13 -6 -37l-381 -1272q-29 -96 -111 -96t-111 96l-344 1157h-4l-344 -1157q-29 -96 -110 -96q-82 0 -111 96l-381 1272 q-6 23 -6 39z" />
<glyph unicode="X" horiz-adv-x="1329" d="M57 57q0 27 23 60l491 645l-438 577q-18 26 -18 56q0 29 21.5 49t51.5 20q40 0 68 -39l412 -561l409 561q29 39 66 39q30 0 50.5 -19t20.5 -48q0 -28 -18 -54l-438 -583l493 -645q23 -33 23 -60q0 -31 -22 -51t-54 -20q-34 0 -65 39l-469 630l-465 -628q-31 -39 -66 -39 q-32 0 -54 20t-22 51z" />
<glyph unicode="Y" horiz-adv-x="1232" d="M33 1391q0 32 22.5 52.5t55.5 20.5q40 0 69 -45l441 -671l446 675q27 41 66 41q28 0 49.5 -18t21.5 -49q0 -25 -16 -49l-498 -723v-557q0 -46 -23.5 -64t-50.5 -18t-50 18t-23 64v557l-492 712q-18 30 -18 54z" />
<glyph unicode="Z" horiz-adv-x="1171" d="M49 74q0 29 35 78l827 1167h-768q-40 0 -55.5 21t-15.5 44q0 13 4.5 26.5t21.5 26.5t45 13h887q45 0 62.5 -24t17.5 -50q0 -29 -35 -78l-825 -1167h801q40 0 55.5 -21t15.5 -44q0 -13 -4.5 -26.5t-21.5 -26.5t-45 -13h-922q-45 0 -62.5 24t-17.5 50z" />
<glyph unicode="[" horiz-adv-x="614" d="M119 -240v1659q0 80 80 80h204q35 0 48.5 -17.5t13.5 -37.5t-13.5 -37.5t-48.5 -17.5h-149v-1598h149q35 0 48.5 -17.5t13.5 -37.5t-13.5 -37.5t-48.5 -17.5h-204q-80 0 -80 79z" />
<glyph unicode="\" horiz-adv-x="757" d="M27 1425q0 28 19.5 44t45.5 16q38 0 55 -43l580 -1387q6 -18 6 -30q0 -28 -19.5 -44t-45.5 -16q-39 0 -56 43l-579 1387q-6 18 -6 30z" />
<glyph unicode="]" horiz-adv-x="614" d="M150 -264q0 20 13 37.5t48 17.5h149v1598h-149q-35 0 -48 17.5t-13 37.5t13 37.5t48 17.5h205q80 0 80 -80v-1659q0 -79 -80 -79h-205q-35 0 -48 17.5t-13 37.5z" />
<glyph unicode="^" horiz-adv-x="1363" d="M188 604q0 15 11 37l415 774q27 49 68 49t68 -49l415 -774q11 -22 11 -37q0 -25 -17 -40t-41 -15q-33 0 -53 41l-383 713l-383 -713q-20 -41 -53 -41q-24 0 -41 15t-17 40z" />
<glyph unicode="_" horiz-adv-x="1024" d="M0 -205q0 11 3.5 21t17.5 20t36 10h910q32 0 44.5 -16.5t12.5 -34.5q0 -11 -3.5 -21t-17.5 -20t-36 -10h-910q-32 0 -44.5 16.5t-12.5 34.5z" />
<glyph unicode="`" horiz-adv-x="491" d="M47 1401q0 27 17.5 44t44.5 19q33 0 57 -28l162 -187q22 -24 22 -51q0 -23 -16 -40t-41 -17q-31 0 -57 28l-166 183q-23 26 -23 49z" />
<glyph unicode="a" horiz-adv-x="1093" d="M113 266q0 62 20 111t52 82t84 57.5t105.5 38t127.5 21t137.5 10t148.5 2.5v30q0 124 -65 186t-191 62q-132 0 -245 -80q-27 -18 -49 -18q-24 0 -40 15.5t-16 41.5q0 28 27 52q56 48 145 77t193 29q163 0 268 -90t105 -258v-420q0 -69 6 -125q4 -32 4 -39q0 -31 -18 -48 t-44 -17q-56 0 -65 69q-6 49 -6 101h-4q-66 -95 -149.5 -138t-199.5 -43q-58 0 -113.5 16t-105.5 49t-81 91.5t-31 134.5zM256 272q0 -65 34.5 -107.5t83 -58.5t107.5 -16q142 0 224.5 92t82.5 226v71h-40q-63 0 -116 -3t-112 -10t-104 -22t-82.5 -37t-57.5 -56.5t-20 -78.5 z" />
<glyph unicode="b" horiz-adv-x="1304" d="M188 61v1426q0 43 22 59.5t48 16.5q15 0 29 -4.5t27.5 -23t13.5 -48.5v-694h4q60 91 158 140.5t204 49.5q146 0 260 -67t175 -181.5t61 -255.5t-61 -255.5t-175 -181.5t-260 -67q-106 0 -204 49t-158 138h-4v-101q0 -30 -13.5 -48t-27.5 -22.5t-29 -4.5t-29 4.5 t-27.5 22.5t-13.5 48zM311 479q0 -165 104.5 -275t264.5 -110q168 0 265 109.5t97 275.5t-97 276.5t-265 110.5q-160 0 -264.5 -111t-104.5 -276z" />
<glyph unicode="c" horiz-adv-x="1024" d="M115 479q0 219 141.5 361.5t370.5 142.5q84 0 166.5 -29.5t142.5 -85.5q27 -27 27 -55q0 -26 -18.5 -43.5t-45.5 -17.5q-29 0 -70 39q-79 75 -200 75q-165 0 -266 -110t-101 -277q0 -166 100.5 -275.5t264.5 -109.5q135 0 229 88q31 27 55 27q27 0 44.5 -17t17.5 -42 q0 -29 -25 -54q-124 -121 -321 -121q-229 0 -370.5 142.5t-141.5 361.5z" />
<glyph unicode="d" horiz-adv-x="1304" d="M115 479q0 141 60.5 255.5t174.5 181.5t260 67q106 0 204.5 -49.5t158.5 -140.5h4v694q0 43 22 59.5t48 16.5q11 0 21 -3t22 -10t19 -23.5t7 -39.5v-1426q0 -23 -7 -39t-19 -23.5t-22 -10t-21 -2.5q-15 0 -29 4.5t-27.5 22.5t-13.5 48v101h-4q-60 -89 -158.5 -138 t-204.5 -49q-146 0 -260 67t-174.5 181.5t-60.5 255.5zM262 479q0 -166 97.5 -275.5t265.5 -109.5q160 0 264 110t104 275q0 166 -104 276.5t-264 110.5q-168 0 -265.5 -110.5t-97.5 -276.5z" />
<glyph unicode="e" horiz-adv-x="1171" d="M115 479q0 216 139 360t344 144q207 0 333 -128.5t126 -340.5q0 -72 -76 -72h-721q3 -146 103 -247t247 -101q164 0 277 125q24 27 53 27q26 0 45 -17t19 -45q0 -25 -21 -49q-145 -160 -373 -160q-214 0 -354.5 143.5t-140.5 360.5zM262 553h653q-6 140 -89 226.5 t-228 86.5q-136 0 -231.5 -93t-104.5 -220z" />
<glyph unicode="f" horiz-adv-x="604" d="M10 901q0 20 15 38.5t51 18.5h149v263q0 166 82.5 259t243.5 93q39 0 64.5 -6.5t36 -18t13.5 -20.5t3 -21q0 -21 -15 -40t-53 -19q-5 0 -23.5 1t-31.5 1q-54 0 -91 -18t-55.5 -53.5t-26 -76.5t-7.5 -98v-246h174q36 0 50.5 -18.5t14.5 -38.5q0 -21 -14.5 -40t-50.5 -19 h-174v-781q0 -30 -13.5 -48t-27.5 -22.5t-29 -4.5t-29 4.5t-27.5 22.5t-13.5 48v781h-149q-36 0 -51 19t-15 40z" />
<glyph unicode="g" horiz-adv-x="1294" d="M115 487q0 136 60.5 248.5t174.5 180t260 67.5q108 0 208 -50t155 -140h4v104q0 43 22 59.5t48 16.5q11 0 21 -3t22 -10t19 -23.5t7 -39.5v-889q0 -69 -13 -133t-48.5 -132.5t-91.5 -119t-150.5 -83t-216.5 -32.5q-116 0 -224.5 40t-185.5 108q-32 27 -32 61 q0 27 18.5 47.5t48.5 20.5q26 0 58 -25q151 -129 323 -129q100 0 174 29.5t117 82t63.5 118.5t20.5 147v180h-4q-54 -87 -155 -137.5t-208 -50.5q-222 0 -358.5 137t-136.5 350zM262 492q0 -157 98 -265t265 -108q162 0 265 104t103 269q0 154 -105 264t-263 110 q-167 0 -265 -108t-98 -266z" />
<glyph unicode="h" horiz-adv-x="1193" d="M188 61v1426q0 43 22 59.5t48 16.5q15 0 29 -4.5t27.5 -23t13.5 -48.5v-686h4q38 82 128 132t193 50q179 0 272 -106t93 -289v-527q0 -30 -13.5 -48t-27.5 -22.5t-29 -4.5q-11 0 -21 2.5t-22 10t-19 23.5t-7 39v469q0 162 -59 249t-202 87q-120 0 -205 -96.5t-85 -277.5 v-431q0 -30 -13.5 -48t-27.5 -22.5t-29 -4.5t-29 4.5t-27.5 22.5t-13.5 48z" />
<glyph unicode="i" horiz-adv-x="512" d="M158 1327q0 41 30 69.5t68 28.5t68 -28.5t30 -69.5t-30 -69.5t-68 -28.5t-68 28.5t-30 69.5zM186 61v836q0 43 22 59.5t48 16.5q15 0 29 -4.5t27.5 -23t13.5 -48.5v-836q0 -30 -13.5 -48t-27.5 -22.5t-29 -4.5t-29 4.5t-27.5 22.5t-13.5 48z" />
<glyph unicode="j" horiz-adv-x="514" d="M-59 -426q0 26 15.5 42.5t41.5 16.5q9 0 30 -3t31 -3q76 0 102.5 51.5t26.5 153.5v1065q0 43 22 59.5t48 16.5q15 0 29 -4.5t27.5 -23t13.5 -48.5v-1087q0 -62 -12.5 -113t-42 -95t-85 -69t-133.5 -25q-114 0 -114 66zM160 1327q0 41 30 69.5t68 28.5t68 -28.5t30 -69.5 t-30 -69.5t-68 -28.5t-68 28.5t-30 69.5z" />
<glyph unicode="k" horiz-adv-x="1044" d="M188 61v1426q0 43 22 59.5t48 16.5q15 0 29 -4.5t27.5 -23t13.5 -48.5v-961h6l467 424q26 23 51 23q29 0 48.5 -19t19.5 -47q0 -30 -29 -57l-383 -330l434 -405q29 -25 29 -58q0 -30 -20 -50.5t-52 -20.5q-29 0 -57 26l-508 492h-6v-443q0 -30 -13.5 -48t-27.5 -22.5 t-29 -4.5t-29 4.5t-27.5 22.5t-13.5 48z" />
<glyph unicode="l" horiz-adv-x="516" d="M188 61v1426q0 43 22 59.5t48 16.5q15 0 29 -4.5t27.5 -23t13.5 -48.5v-1426q0 -30 -13.5 -48t-27.5 -22.5t-29 -4.5t-29 4.5t-27.5 22.5t-13.5 48z" />
<glyph unicode="m" horiz-adv-x="1808" d="M180 904q0 37 21 53q22 16 45 16q25 0 45.5 -15t21.5 -57l4 -106h5q42 84 127.5 136t187.5 52q217 0 295 -203q50 99 135.5 151t200.5 52q179 0 271.5 -105.5t92.5 -289.5v-527q0 -23 -7 -39t-19 -23.5t-22 -10t-21 -2.5q-15 0 -29 4.5t-27.5 22.5t-13.5 48v469 q0 336 -248 336q-72 0 -126.5 -30t-85.5 -82t-45.5 -113t-14.5 -131v-449q0 -30 -13.5 -48t-27.5 -22.5t-29 -4.5q-11 0 -21 2.5t-22 10t-19 23.5t-7 39v498q0 152 -50.5 229.5t-181.5 77.5q-51 0 -99.5 -23t-89 -67.5t-65 -118t-24.5 -165.5v-431q0 -30 -13.5 -48 t-27.5 -22.5t-29 -4.5t-29 4.5t-27.5 22.5t-13.5 48v687z" />
<glyph unicode="n" horiz-adv-x="1189" d="M180 901q-1 40 21 56t45 16q25 0 45.5 -15t21.5 -57l4 -106h5q39 83 132 135.5t195 52.5q179 0 272 -106t93 -289v-527q0 -30 -13.5 -48t-27.5 -22.5t-29 -4.5t-29 4.5t-27.5 22.5t-13.5 48v469q0 79 -12.5 138t-41.5 105t-80.5 69.5t-125.5 23.5q-120 0 -205 -96.5 t-85 -277.5v-431q0 -30 -13.5 -48t-27.5 -22.5t-29 -4.5t-29 4.5t-27.5 22.5t-13.5 48v687q0 87 -4 153z" />
<glyph unicode="o" horiz-adv-x="1251" d="M115 479q0 218 144 361t366 143q223 0 367.5 -143t144.5 -361t-144.5 -361t-367.5 -143q-222 0 -366 143t-144 361zM262 479q0 -165 100 -275t263 -110q164 0 264 110t100 275t-100 276t-264 111q-162 0 -262.5 -111t-100.5 -276z" />
<glyph unicode="p" horiz-adv-x="1300" d="M184 -430v1327q0 43 22 59.5t48 16.5q15 0 29 -4.5t27.5 -23t13.5 -48.5v-104h6q58 91 156 140.5t204 49.5q146 0 260 -67t175 -181.5t61 -255.5t-61 -255.5t-175 -181.5t-260 -67q-105 0 -203 49.5t-157 137.5h-6v-592q0 -43 -22 -59.5t-48 -16.5q-15 0 -29 4.5 t-27.5 23t-13.5 48.5zM307 479q0 -165 104.5 -275t264.5 -110q168 0 265 109.5t97 275.5t-97 276.5t-265 110.5q-160 0 -264.5 -111t-104.5 -276z" />
<glyph unicode="q" horiz-adv-x="1300" d="M115 479q0 141 60.5 255.5t174.5 181.5t260 67q107 0 205 -49.5t156 -140.5h6v104q0 43 22 59.5t48 16.5q11 0 21 -3t22 -10t19 -23.5t7 -39.5v-1327q0 -43 -22 -59.5t-47 -16.5q-15 0 -29 4.5t-27.5 23t-13.5 48.5v592h-6q-59 -87 -157.5 -137t-203.5 -50 q-146 0 -260 67t-174.5 181.5t-60.5 255.5zM262 479q0 -166 97.5 -275.5t265.5 -109.5q160 0 264 110t104 275q0 166 -104 276.5t-264 110.5q-168 0 -265.5 -110.5t-97.5 -276.5z" />
<glyph unicode="r" horiz-adv-x="737" d="M180 901q-1 40 21 56t45 16q25 0 45.5 -15t21.5 -57l4 -106h5q40 84 123.5 136t183.5 52q40 0 59 -8q39 -15 39 -55q0 -33 -20.5 -50.5t-55.5 -17.5q-11 0 -26 1t-21 1q-120 0 -200 -90.5t-80 -271.5v-431q0 -30 -13.5 -48t-27.5 -22.5t-29 -4.5t-29 4.5t-27.5 22.5 t-13.5 48v687q0 87 -4 153z" />
<glyph unicode="s" horiz-adv-x="909" d="M98 162q0 28 18.5 46.5t47.5 18.5t59 -30q96 -103 232 -103q99 0 162 40t63 128q0 70 -67 109.5t-216 74.5q-42 10 -73 20t-71.5 30.5t-66.5 46.5t-44.5 68t-18.5 94q0 70 28.5 125t77.5 87.5t109 49t127 16.5q83 0 159.5 -30t131.5 -85q26 -26 26 -55q0 -27 -18 -45 t-45 -18q-30 0 -53 26q-83 90 -207 90q-84 0 -143.5 -37.5t-59.5 -111.5q0 -66 53.5 -102t175.5 -62q171 -36 251.5 -103t80.5 -178q0 -64 -20.5 -115t-55 -84.5t-81.5 -56t-97.5 -32t-105.5 -9.5q-203 0 -332 129q-27 27 -27 58z" />
<glyph unicode="t" horiz-adv-x="649" d="M-6 899q0 21 14.5 40t50.5 19h148v209q0 43 22 59.5t47 16.5q15 0 29 -4.5t27.5 -23t13.5 -48.5v-209h219q36 0 51 -19t15 -40q0 -20 -15 -38.5t-51 -18.5h-219v-559q0 -98 36 -137.5t103 -39.5q27 0 60 13q18 6 28 6q25 0 40.5 -15.5t15.5 -41.5q0 -40 -47 -60 q-48 -20 -129 -20q-43 0 -82 11t-78 37t-62.5 79.5t-23.5 128.5v598h-148q-36 0 -50.5 18.5t-14.5 38.5z" />
<glyph unicode="u" horiz-adv-x="1189" d="M176 371v526q0 43 22 59.5t48 16.5q11 0 21 -3t22 -10t19 -23.5t7 -39.5v-469q0 -79 12.5 -138t41.5 -105t80.5 -69.5t125.5 -23.5q120 0 205.5 97t85.5 278v430q0 43 22 59.5t48 16.5q15 0 29 -4.5t27.5 -23t13.5 -48.5v-686q0 -88 4 -154q1 -40 -21 -55.5t-45 -15.5 q-65 0 -67 71q-5 97 -5 107h-4q-39 -83 -132 -136t-195 -53q-179 0 -272 106t-93 290z" />
<glyph unicode="v" horiz-adv-x="999" d="M51 905q0 28 21 48t53 20q49 0 70 -55l305 -771h4l307 771q20 55 68 55q32 0 51.5 -19t19.5 -47q0 -16 -8 -37l-340 -807q-32 -77 -102 -77q-72 0 -103 77l-338 803q-8 21 -8 39z" />
<glyph unicode="w" horiz-adv-x="1527" d="M63 905q0 31 21 49.5t53 18.5q51 0 68 -58l227 -735h4l242 723q24 70 86 70t86 -70l246 -723h4l225 735q17 58 68 58q31 0 51 -18.5t20 -47.5q0 -17 -6 -35l-264 -806q-26 -80 -96 -80q-71 0 -97 80l-237 710h-4l-234 -710q-26 -80 -96 -80t-96 80l-264 806q-7 21 -7 33z " />
<glyph unicode="x" horiz-adv-x="991" d="M61 51q0 25 21 51l328 394l-295 358q-21 27 -21 49q0 29 20.5 49.5t49.5 20.5q36 0 65 -37l267 -342l268 346q24 33 59 33q28 0 48 -19t20 -47q0 -24 -21 -51l-292 -354l329 -393q21 -26 21 -52q0 -30 -20 -50.5t-52 -20.5q-33 0 -63 37l-299 376l-310 -383 q-22 -30 -57 -30q-28 0 -47 18t-19 47z" />
<glyph unicode="y" horiz-adv-x="999" d="M53 905q0 29 21 48.5t51 19.5q49 0 70 -55l319 -768h4l293 768q20 55 68 55q31 0 51 -19t20 -47q0 -16 -8 -37l-453 -1118q-32 -80 -67.5 -130t-94.5 -82t-139 -32q-48 0 -82 9q-51 15 -51 61q0 25 17 42.5t43 17.5q2 0 32 -5q16 -2 35 -2q66 0 108.5 42t74.5 128l77 201 l-381 864q-8 21 -8 39z" />
<glyph unicode="z" horiz-adv-x="905" d="M49 61q0 30 29 66l567 715h-502q-36 0 -50.5 19t-14.5 40q0 20 14.5 38.5t50.5 18.5h627q26 0 42 -12.5t20 -24.5t4 -24q0 -30 -29 -66l-567 -710h548q27 0 43.5 -12.5t20.5 -24.5t4 -23q0 -21 -14.5 -41t-53.5 -20h-673q-26 0 -42 12.5t-20 24.5t-4 24z" />
<glyph unicode="{" horiz-adv-x="614" d="M-14 590q0 49 59 67q62 20 89.5 76.5t27.5 165.5v344q0 134 62 195t190 61h51q35 0 48 -17.5t13 -37.5t-13 -37.5t-48 -17.5h-41q-71 0 -99 -42.5t-28 -127.5v-351q0 -231 -182 -276v-4q182 -45 182 -277v-350q0 -85 28 -127.5t99 -42.5h41q35 0 48 -17.5t13 -37.5 t-13 -37.5t-48 -17.5h-51q-128 0 -190 61t-62 195v344q0 109 -27.5 165t-89.5 76q-59 18 -59 68z" />
<glyph unicode="|" horiz-adv-x="454" d="M166 -459v1942q0 38 19.5 52.5t41.5 14.5q13 0 25.5 -4.5t24.5 -20.5t12 -42v-1942q0 -37 -20 -52t-42 -15t-41.5 14.5t-19.5 52.5z" />
<glyph unicode="}" horiz-adv-x="614" d="M88 -264q0 20 13.5 37.5t48.5 17.5h40q71 0 99 42.5t28 127.5v350q0 232 183 277v4q-183 45 -183 276v351q0 85 -28 127.5t-99 42.5h-40q-35 0 -48.5 17.5t-13.5 37.5t13.5 37.5t48.5 17.5h51q128 0 190 -61t62 -195v-344q0 -110 27 -166t89 -76q60 -18 60 -67 q0 -50 -60 -68q-62 -20 -89 -75.5t-27 -165.5v-344q0 -134 -62 -195t-190 -61h-51q-35 0 -48.5 17.5t-13.5 37.5z" />
<glyph unicode="~" horiz-adv-x="1363" d="M195 561q0 22 22 53q109 146 244 146q115 0 225 -72q132 -84 213 -84q91 0 158 94q25 37 55 37q25 0 41 -16t16 -39q0 -22 -22 -53q-109 -146 -244 -146q-61 0 -109.5 15t-117.5 59q-70 44 -115.5 63t-95.5 19q-91 0 -158 -94q-25 -37 -55 -37q-25 0 -41 16t-16 39z" />
<glyph unicode="&#xa1;" horiz-adv-x="671" d="M225 883q0 44 31.5 77t79.5 33t79 -33t31 -77t-31 -77.5t-79 -33.5t-79.5 33.5t-31.5 77.5zM262 -401v921q0 46 23.5 64t50.5 18t50.5 -18t23.5 -64v-921q0 -46 -23.5 -64t-50.5 -18t-50.5 18t-23.5 64z" />
<glyph unicode="&#xa2;" d="M180 479q0 201 116 339t314 159v88q0 31 15.5 43t33.5 12t34 -12t16 -43v-84q77 -3 151.5 -34t128.5 -83q27 -27 27 -55q0 -26 -18.5 -43.5t-45.5 -17.5q-29 0 -69 38q-73 66 -174 72v-758q105 6 190 84q27 27 53 27q28 0 46 -17.5t18 -43.5q0 -29 -25 -54 q-109 -109 -282 -119v-83q0 -31 -16 -43.5t-34 -12.5q-17 0 -33 12.5t-16 43.5v88q-198 21 -314 158.5t-116 338.5zM328 479q0 -147 76 -249.5t206 -125.5v750q-130 -23 -206 -125.5t-76 -249.5z" />
<glyph unicode="&#xa3;" d="M139 61q0 21 14.5 41.5t53.5 20.5h155v563h-143q-27 0 -43 12.5t-20 25t-4 24.5q0 9 2.5 17.5t8.5 19.5t20.5 17.5t35.5 6.5h143v190q0 74 13 141.5t45 132t80.5 111t124.5 75t172 28.5q157 0 258 -76q39 -27 39 -61q0 -29 -19.5 -48.5t-48.5 -19.5q-26 0 -57 23 q-71 57 -178 57q-70 0 -122.5 -26.5t-82 -65t-47.5 -92t-23.5 -98.5t-5.5 -93v-178h291q21 0 35.5 -6.5t20.5 -17.5t8.5 -19.5t2.5 -17.5q0 -12 -4 -24.5t-20 -25t-43 -12.5h-291v-563h483q39 0 53.5 -20.5t14.5 -41.5t-14.5 -41t-53.5 -20h-786q-39 0 -53.5 20t-14.5 41z " />
<glyph unicode="&#xa4;" horiz-adv-x="1761" d="M291 98q0 28 24 52l154 153q-109 131 -109 330q0 187 103 321l-148 146q-24 21 -24 51q0 25 18 43t47 18q25 0 47 -22l148 -148q142 113 332 113q191 0 327 -111l146 146q22 22 47 22q29 0 47 -18t18 -43q0 -27 -24 -51l-141 -142q104 -136 104 -325q0 -198 -113 -336 l150 -147q24 -24 24 -52q0 -25 -18 -43t-47 -18q-25 0 -47 22l-152 152q-137 -105 -321 -105q-185 0 -324 109l-156 -156q-22 -22 -47 -22q-29 0 -47 18t-18 43zM510 633q0 -164 103 -275.5t270 -111.5q166 0 269 111.5t103 275.5q0 162 -103 272.5t-269 110.5 q-167 0 -270 -110.5t-103 -272.5z" />
<glyph unicode="&#xa5;" d="M59 1393q0 31 22 51t54 20q37 0 64 -39l399 -589l397 591q24 37 62 37q32 0 52.5 -19t20.5 -50q0 -26 -18 -52l-403 -561h245q34 0 48 -18t14 -37t-14 -37t-48 -18h-290v-215h290q34 0 48 -18.5t14 -37.5t-14 -37t-48 -18h-290v-285q0 -30 -13.5 -48t-27.5 -22.5 t-29 -4.5t-29 4.5t-27.5 22.5t-13.5 48v285h-291q-34 0 -47.5 17.5t-13.5 37.5t13.5 38t47.5 18h291v215h-291q-34 0 -47.5 17.5t-13.5 37.5t13.5 37.5t47.5 17.5h250l-405 559q-19 27 -19 52z" />
<glyph unicode="&#xa6;" horiz-adv-x="454" d="M166 -305v610q0 38 19.5 53t41.5 15t42 -15t20 -53v-610q0 -38 -20 -53t-42 -15t-41.5 15t-19.5 53zM166 719v610q0 38 19.5 53t41.5 15t42 -15t20 -53v-610q0 -38 -20 -53t-42 -15t-41.5 15t-19.5 53z" />
<glyph unicode="&#xa7;" d="M188 -53q0 30 20.5 49.5t51.5 19.5q39 0 68 -41q89 -125 247 -125q40 0 78.5 9.5t76 30.5t60.5 62.5t23 98.5q0 124 -154 197l-260 125q-92 44 -143 106.5t-51 167.5q0 98 58.5 169.5t154.5 101.5q-23 14 -40.5 26.5t-41 35t-39 47t-26.5 60.5t-11 76q0 156 108.5 240 t262.5 84q106 0 185.5 -36.5t121.5 -96.5q16 -23 16 -47q0 -28 -19 -47t-48 -19q-27 0 -62 37q-75 86 -196 86q-100 0 -160.5 -48.5t-60.5 -133.5q0 -37 12.5 -68t28 -51t47 -41t52 -31.5t60.5 -29.5l178 -84q211 -101 211 -291q0 -97 -51.5 -168.5t-130.5 -100.5 q146 -89 146 -256q0 -110 -56 -187t-141 -111.5t-189 -34.5q-119 0 -215 42t-153 126q-19 27 -19 51zM348 655q0 -27 6 -49t21.5 -41t30 -32.5t45 -30.5t53 -27.5t65.5 -30.5l136 -61q59 14 104 61.5t45 120.5q0 44 -14.5 79t-45 61t-61.5 43.5t-78 37.5l-125 54 q-31 -3 -61 -15t-58 -33t-45.5 -57t-17.5 -80z" />
<glyph unicode="&#xa8;" horiz-adv-x="491" d="M-55 1325q0 41 30 73t74 32t74.5 -32t30.5 -73t-30.5 -72.5t-74.5 -31.5t-74 31.5t-30 72.5zM338 1325q0 41 30 73t74 32t74.5 -32t30.5 -73t-30.5 -72.5t-74.5 -31.5t-74 31.5t-30 72.5z" />
<glyph unicode="&#xa9;" horiz-adv-x="1638" d="M41 723q0 158 62 301.5t166.5 246.5t248.5 163.5t303 60.5q158 0 301.5 -60.5t247.5 -163.5t165.5 -246.5t61.5 -301.5t-61.5 -300.5t-165.5 -244.5t-247.5 -162.5t-301.5 -60.5q-159 0 -303 60.5t-248.5 162.5t-166.5 244.5t-62 300.5zM164 723q0 -133 52 -253.5 t140 -208t210 -139.5t255 -52q177 0 327.5 87.5t238.5 238t88 327.5q0 178 -88 329.5t-238.5 239.5t-327.5 88q-133 0 -255 -52t-210 -140t-140 -210t-52 -255zM377 735q0 199 131.5 330t331.5 131q80 0 154.5 -27.5t129.5 -78.5q27 -27 27 -56t-18.5 -47t-47.5 -18 q-31 0 -57 26q-34 34 -83.5 56t-100.5 22q-146 0 -236 -99.5t-90 -238.5q0 -141 88 -240.5t234 -99.5q123 0 209 92q25 29 57 29q26 0 43.5 -16t17.5 -43q0 -29 -20 -51q-127 -134 -307 -134q-200 0 -331.5 131t-131.5 332z" />
<glyph unicode="&#xaa;" horiz-adv-x="737" d="M82 1047q0 42 16 74.5t47.5 53t68.5 34.5t88 20.5t96 9t102 2.5v16q0 61 -41 93t-109 32q-78 0 -143 -43q-20 -14 -39 -14q-20 0 -32.5 12.5t-12.5 32.5q0 25 24 43q85 62 213 62q124 0 188 -63t64 -163v-252q0 -13 1 -40t1 -33q0 -26 -14.5 -41t-38.5 -15q-45 0 -53 52 q-4 32 -4 47h-4q-68 -99 -201 -99q-38 0 -74.5 9.5t-69.5 29.5t-53 56t-20 84zM203 1049q0 -47 35 -69t86 -22q82 0 129 47.5t47 122.5v31h-31q-266 0 -266 -110z" />
<glyph unicode="&#xab;" horiz-adv-x="987" d="M121 492q0 23 18 49l223 331q22 33 54 33q24 0 40.5 -15.5t16.5 -39.5q0 -22 -14 -45l-205 -313l205 -314q14 -23 14 -45q0 -24 -16.5 -39.5t-40.5 -15.5q-32 0 -54 33l-223 331q-18 26 -18 50zM494 492q0 23 18 49l223 331q22 33 53 33q24 0 41 -15.5t17 -39.5 q0 -20 -15 -45l-204 -313l204 -314q15 -25 15 -45q0 -24 -17 -39.5t-41 -15.5q-31 0 -53 33l-223 331q-18 26 -18 50z" />
<glyph unicode="&#xac;" horiz-adv-x="1363" d="M145 774q0 21 14.5 41.5t53.5 20.5h917q74 0 74 -74v-443q0 -21 -6.5 -35.5t-17.5 -20.5t-19.5 -8.5t-17.5 -2.5q-12 0 -24.5 4t-25 20t-12.5 43v394h-868q-39 0 -53.5 20t-14.5 41z" />
<glyph unicode="&#xad;" horiz-adv-x="655" d="M84 498q0 20 15 38.5t51 18.5h356q36 0 50.5 -18.5t14.5 -38.5q0 -22 -14.5 -41t-50.5 -19h-356q-36 0 -51 19.5t-15 40.5z" />
<glyph unicode="&#xae;" horiz-adv-x="1228" d="M147 1010q0 193 136.5 329t330.5 136t330.5 -136t136.5 -329t-136.5 -327t-330.5 -134t-330.5 134t-136.5 327zM221 1010q0 -162 115.5 -278t277.5 -116t278 116t116 278q0 163 -115.5 278t-278.5 115t-278 -115t-115 -278zM432 786v433q0 55 55 55h129q82 0 138.5 -37.5 t56.5 -116.5q0 -56 -32 -92.5t-89 -48.5l113 -166q10 -15 10 -31q0 -20 -13 -33.5t-32 -13.5q-31 0 -47 29l-127 205h-68v-183q0 -28 -15 -39.5t-32 -11.5t-32 11.5t-15 39.5zM526 1044h76q115 0 115 78q0 39 -30.5 55.5t-74.5 16.5h-86v-150z" />
<glyph unicode="&#xaf;" horiz-adv-x="491" d="M-47 1284q0 20 13.5 37.5t47.5 17.5h463q34 0 48 -18t14 -37t-14 -37t-48 -18h-463q-34 0 -47.5 17.5t-13.5 37.5z" />
<glyph unicode="&#xb0;" horiz-adv-x="819" d="M104 1169q0 132 87 219t219 87t218.5 -87t86.5 -219t-86.5 -218.5t-218.5 -86.5t-219 86.5t-87 218.5zM203 1169q0 -86 60.5 -146t146.5 -60t146 60t60 146t-60 146.5t-146 60.5t-146.5 -60.5t-60.5 -146.5z" />
<glyph unicode="&#xb1;" horiz-adv-x="1363" d="M145 160q0 21 14.5 41t53.5 20h938q39 0 53.5 -20t14.5 -41t-14.5 -41.5t-53.5 -20.5h-938q-39 0 -53.5 20.5t-14.5 41.5zM145 772q0 21 14.5 41.5t53.5 20.5h408v266q0 38 19.5 52.5t41.5 14.5t41.5 -14.5t19.5 -52.5v-266h408q39 0 53.5 -20.5t14.5 -41.5t-14.5 -41 t-53.5 -20h-408v-256q0 -38 -19.5 -53t-41.5 -15t-41.5 15t-19.5 53v256h-408q-39 0 -53.5 20t-14.5 41z" />
<glyph unicode="&#xb2;" horiz-adv-x="757" d="M74 655q0 35 41 76l315 326q88 92 88 176q0 58 -38.5 92.5t-98.5 34.5q-95 0 -141 -103q-21 -47 -62 -47q-23 0 -41 16t-18 42q0 23 12 47q33 70 100.5 114t149.5 44q114 0 191 -62.5t77 -177.5q0 -43 -11.5 -81t-36.5 -73t-43.5 -56t-53.5 -56l-262 -262h366 q34 0 47 -18t13 -38t-13 -37.5t-47 -17.5h-465q-39 0 -54 19.5t-15 41.5z" />
<glyph unicode="&#xb3;" horiz-adv-x="757" d="M102 758q0 23 17.5 39t42.5 16q33 0 57 -41q51 -80 150 -80q68 0 115.5 39.5t47.5 110.5q0 77 -56.5 113t-139.5 36h-12q-32 0 -45 16.5t-13 34.5q0 19 13 36.5t45 17.5h12q78 0 125 34.5t47 108.5q0 56 -40.5 91.5t-100.5 35.5q-75 0 -134 -70q-19 -24 -47 -24 q-24 0 -40.5 14.5t-16.5 38.5q0 23 18 45q84 105 224 105q112 0 186 -61t74 -173q0 -63 -31.5 -112t-85.5 -78q66 -25 103.5 -79.5t37.5 -129.5q0 -122 -82 -191t-204 -69q-82 0 -148 33.5t-106 99.5q-13 22 -13 43z" />
<glyph unicode="&#xb4;" horiz-adv-x="491" d="M141 1198q0 25 23 51l162 187q24 28 57 28q27 -2 44 -19t17 -44q0 -25 -22 -49l-166 -183q-26 -28 -57 -28q-25 0 -41.5 17t-16.5 40z" />
<glyph unicode="&#xb5;" horiz-adv-x="1138" d="M147 -406v1303q0 43 21.5 59.5t46.5 16.5q15 0 28.5 -4.5t26.5 -23t13 -48.5v-469q0 -180 57 -255t203 -75q127 0 209 98.5t82 270.5v430q0 43 21 59.5t46 16.5q15 0 28.5 -4.5t26.5 -23t13 -48.5v-686q0 -42 6 -150q1 -23 -6 -39t-19.5 -23.5t-23.5 -10t-23 -2.5 q-11 0 -21 2.5t-22 10t-19 23.5t-7 39v95h-5q-55 -87 -140 -134t-181 -47q-140 0 -225 60v-441q0 -23 -7 -39t-18.5 -23.5t-21.5 -10t-21 -2.5t-21 2.5t-21.5 10t-18.5 23.5t-7 39z" />
<glyph unicode="&#xb6;" horiz-adv-x="1228" d="M98 1028q0 198 125 310t342 112h404q82 0 82 -80v-1567q0 -23 -7 -39t-18.5 -23.5t-21.5 -10t-21 -2.5t-21 2.5t-21.5 10t-18.5 23.5t-7 39v1536h-253v-1536q0 -23 -7 -39t-18.5 -23.5t-21.5 -10t-21 -2.5t-21 2.5t-21.5 10t-18.5 23.5t-7 39v844q-186 0 -307 110 t-121 271z" />
<glyph unicode="&#xb7;" horiz-adv-x="532" d="M156 643q0 44 31 77.5t79 33.5t79.5 -33.5t31.5 -77.5t-31.5 -77.5t-79.5 -33.5t-79 33.5t-31 77.5z" />
<glyph unicode="&#xb8;" horiz-adv-x="491" d="M31 -395q0 20 12.5 33.5t34.5 13.5q17 0 53 -12q43 -13 86 -13q59 0 92 21t33 59q0 35 -24.5 53.5t-67.5 18.5q-25 0 -49 -6t-43 -6q-22 0 -33.5 12t-11.5 28q0 18 12 37l104 164h105l-98 -151q24 6 63 6q69 0 116.5 -38t47.5 -116q0 -91 -71 -135.5t-171 -44.5 q-74 0 -147 25q-43 15 -43 51z" />
<glyph unicode="&#xb9;" horiz-adv-x="757" d="M158 1247q0 25 24 47l172 146q30 24 58 24q13 0 25 -4t25 -20.5t13 -44.5v-754q0 -39 -20 -54.5t-41 -15.5q-22 0 -43 15.5t-21 54.5v653l-94 -84q-21 -18 -43 -18q-24 0 -39.5 15.5t-15.5 39.5z" />
<glyph unicode="&#xba;" horiz-adv-x="737" d="M57 1171q0 133 88.5 218.5t223.5 85.5t223 -85.5t88 -218.5q0 -132 -88 -217.5t-223 -85.5t-223.5 85.5t-88.5 217.5zM176 1171q0 -87 51 -147.5t142 -60.5t141.5 60.5t50.5 147.5q0 88 -50.5 148.5t-141.5 60.5t-142 -60.5t-51 -148.5z" />
<glyph unicode="&#xbb;" horiz-adv-x="987" d="M141 133q0 20 15 45l204 314l-204 313q-15 25 -15 45q0 24 17 39.5t41 15.5q31 0 53 -33l223 -331q19 -27 19 -49q0 -23 -19 -50l-223 -331q-22 -33 -53 -33q-24 0 -41 15.5t-17 39.5zM514 133q0 22 14 45l205 314l-205 313q-14 23 -14 45q0 24 16.5 39.5t40.5 15.5 q32 0 54 -33l223 -331q18 -26 18 -49q0 -24 -18 -50l-223 -331q-22 -33 -54 -33q-24 0 -40.5 15.5t-16.5 39.5z" />
<glyph unicode="&#xbc;" horiz-adv-x="1720" d="M158 1247q0 25 24 47l172 146q30 24 58 24q13 0 25 -4t25 -20.5t13 -44.5v-754q0 -39 -20 -54.5t-41 -15.5q-22 0 -43 15.5t-21 54.5v653l-94 -84q-21 -18 -43 -18q-24 0 -39.5 15.5t-15.5 39.5zM356 4q0 16 13 39l866 1427q22 35 53 35q25 0 43.5 -15.5t18.5 -41.5 q0 -16 -13 -39l-866 -1427q-22 -35 -53 -35q-25 0 -43.5 15.5t-18.5 41.5zM969 260q0 29 24 64l344 507q32 48 74 48q25 0 47.5 -17t22.5 -59v-492h75q35 0 48.5 -17.5t13.5 -37.5t-13.5 -37.5t-48.5 -17.5h-75v-152q0 -35 -18.5 -49t-37.5 -14q-20 0 -38.5 14t-18.5 49v152 h-330q-39 0 -54 18.5t-15 40.5zM1112 311h256v377h-6z" />
<glyph unicode="&#xbd;" horiz-adv-x="1720" d="M158 1247q0 25 24 47l172 146q30 24 58 24q13 0 25 -4t25 -20.5t13 -44.5v-754q0 -39 -20 -54.5t-41 -15.5q-22 0 -43 15.5t-21 54.5v653l-94 -84q-21 -18 -43 -18q-24 0 -39.5 15.5t-15.5 39.5zM356 4q0 16 13 39l866 1427q22 35 53 35q25 0 43.5 -15.5t18.5 -41.5 q0 -16 -13 -39l-866 -1427q-22 -35 -53 -35q-25 0 -43.5 15.5t-18.5 41.5zM1030 61q0 35 41 76l315 326q41 43 65 84t24 92q0 57 -39 92t-99 35q-96 0 -141 -102q-21 -48 -61 -48q-23 0 -41.5 16t-18.5 42q0 23 12 47q33 70 100.5 114t149.5 44q114 0 191.5 -63t77.5 -177 q0 -43 -11.5 -80.5t-37 -73.5t-43.5 -56t-54 -56l-262 -262h367q33 0 46 -18t13 -38t-12.5 -37.5t-46.5 -17.5h-465q-39 0 -54.5 19.5t-15.5 41.5z" />
<glyph unicode="&#xbe;" horiz-adv-x="1720" d="M102 758q0 23 17.5 39t42.5 16q33 0 57 -41q51 -80 150 -80q68 0 115.5 39.5t47.5 110.5q0 77 -56.5 113t-139.5 36h-12q-32 0 -45 16.5t-13 34.5q0 19 13 36.5t45 17.5h12q78 0 125 34.5t47 108.5q0 56 -40.5 91.5t-100.5 35.5q-75 0 -134 -70q-19 -24 -47 -24 q-24 0 -40.5 14.5t-16.5 38.5q0 23 18 45q84 105 224 105q112 0 186 -61t74 -173q0 -63 -31.5 -112t-85.5 -78q66 -25 103.5 -79.5t37.5 -129.5q0 -122 -82 -191t-204 -69q-82 0 -148 33.5t-106 99.5q-13 22 -13 43zM356 4q0 16 13 39l866 1427q22 35 53 35q25 0 43.5 -15.5 t18.5 -41.5q0 -16 -13 -39l-866 -1427q-22 -35 -53 -35q-25 0 -43.5 15.5t-18.5 41.5zM969 260q0 29 24 64l344 507q32 48 74 48q25 0 47.5 -17t22.5 -59v-492h75q35 0 48.5 -17.5t13.5 -37.5t-13.5 -37.5t-48.5 -17.5h-75v-152q0 -35 -18.5 -49t-37.5 -14q-20 0 -38.5 14 t-18.5 49v152h-330q-39 0 -54 18.5t-15 40.5zM1112 311h256v377h-6z" />
<glyph unicode="&#xbf;" horiz-adv-x="987" d="M94 -131q0 63 13.5 113t43.5 91.5t57 67.5t75 66q64 52 93 85t45.5 81.5t16.5 122.5v26q0 46 22.5 64t49.5 18t49.5 -18t22.5 -64v-55q0 -56 -12.5 -102.5t-39 -85t-50.5 -64t-62 -59.5l-58 -52q-57 -49 -87.5 -101.5t-30.5 -125.5q0 -112 73 -177t183 -65q92 0 159 50.5 t95 140.5q17 57 67 57q29 0 48.5 -19t19.5 -50q0 -20 -8 -41q-45 -124 -146.5 -194.5t-240.5 -70.5q-111 0 -200.5 41.5t-143.5 124.5t-54 195zM385 885q0 44 31.5 77t79.5 33t79 -33t31 -77t-31 -77.5t-79 -33.5t-79.5 33.5t-31.5 77.5z" />
<glyph unicode="&#xc0;" horiz-adv-x="1433" d="M41 55q0 20 10 45l567 1282q35 82 101 82q65 0 100 -82l561 -1278q13 -30 13 -47q0 -31 -22 -51t-54 -20q-50 0 -72 53l-145 342h-770l-146 -344q-21 -51 -69 -51q-32 0 -53 19t-21 50zM387 516h655l-327 770zM461 1810q0 27 17 44.5t44 19.5q33 0 58 -29l161 -186 q23 -26 23 -51q0 -23 -16 -40.5t-41 -17.5q-31 0 -58 29l-166 182q-22 24 -22 49z" />
<glyph unicode="&#xc1;" horiz-adv-x="1433" d="M41 55q0 20 10 45l567 1282q35 82 101 82q65 0 100 -82l561 -1278q13 -30 13 -47q0 -31 -22 -51t-54 -20q-50 0 -72 53l-145 342h-770l-146 -344q-21 -51 -69 -51q-32 0 -53 19t-21 50zM387 516h655l-327 770zM676 1608q0 27 22 51l162 186q25 29 58 29q27 -2 44 -19.5 t17 -44.5q0 -23 -23 -49l-165 -182q-27 -29 -58 -29q-25 0 -41 17.5t-16 40.5z" />
<glyph unicode="&#xc2;" horiz-adv-x="1433" d="M41 55q0 20 10 45l567 1282q35 82 101 82q65 0 100 -82l561 -1278q13 -30 13 -47q0 -31 -22 -51t-54 -20q-50 0 -72 53l-145 342h-770l-146 -344q-21 -51 -69 -51q-32 0 -53 19t-21 50zM387 516h655l-327 770zM440 1602q0 21 21 45l160 174q48 53 94 53t94 -53l160 -174 q20 -23 20 -45q0 -23 -15.5 -37.5t-37.5 -14.5q-25 0 -47 25l-174 184l-174 -184q-22 -25 -47 -25q-22 0 -38 14.5t-16 37.5z" />
<glyph unicode="&#xc3;" horiz-adv-x="1433" d="M41 55q0 20 10 45l567 1282q35 82 101 82q65 0 100 -82l561 -1278q13 -30 13 -47q0 -31 -22 -51t-54 -20q-50 0 -72 53l-145 342h-770l-146 -344q-21 -51 -69 -51q-32 0 -53 19t-21 50zM387 516h655l-327 770zM391 1630q0 22 10 47q53 127 174 127q52 0 148 -49 q5 -3 20 -10t21.5 -9.5t19 -8t20 -8t17.5 -6t18.5 -4.5t16.5 -1q28 0 46.5 17t33.5 57q15 41 51 41q53 0 53 -54q0 -22 -10 -47q-53 -127 -174 -127q-51 0 -145 50q-88 47 -136 47q-28 0 -46 -17t-33 -57q-15 -41 -52 -41q-53 0 -53 53z" />
<glyph unicode="&#xc4;" horiz-adv-x="1433" d="M41 55q0 20 10 45l567 1282q35 82 101 82q65 0 100 -82l561 -1278q13 -30 13 -47q0 -31 -22 -51t-54 -20q-50 0 -72 53l-145 342h-770l-146 -344q-21 -51 -69 -51q-32 0 -53 19t-21 50zM387 516h655l-327 770zM418 1735q0 41 30 72.5t74 31.5t74.5 -31.5t30.5 -72.5 t-30.5 -73t-74.5 -32t-74 32t-30 73zM811 1735q0 41 30 72.5t74 31.5t74.5 -31.5t30.5 -72.5t-30.5 -73t-74.5 -32t-74 32t-30 73z" />
<glyph unicode="&#xc5;" horiz-adv-x="1433" d="M41 55q0 20 10 45l567 1282q35 82 101 82q65 0 100 -82l561 -1278q13 -30 13 -47q0 -31 -22 -51t-54 -20q-50 0 -72 53l-145 342h-770l-146 -344q-21 -51 -69 -51q-32 0 -53 19t-21 50zM387 516h655l-327 770zM520 1741q0 82 58 138t139 56t138.5 -56t57.5 -138 t-58 -138.5t-138 -56.5q-81 0 -139 56.5t-58 138.5zM594 1741q0 -51 36 -86t87 -35t87 35t36 86t-36 86t-87 35t-87 -35t-36 -86z" />
<glyph unicode="&#xc6;" horiz-adv-x="2027" d="M59 51q0 24 19 55l858 1297q18 26 37.5 36.5t54.5 10.5h807q40 0 56 -21.5t16 -44.5t-16 -44t-56 -21h-625v-500h576q40 0 56 -21t16 -42q0 -23 -16 -44.5t-56 -21.5h-576v-559h650q40 0 55.5 -21t15.5 -44q0 -13 -4.5 -26.5t-21.5 -26.5t-45 -13h-709q-88 0 -88 88v318 h-623l-245 -379q-25 -41 -66 -41q-29 0 -49.5 18.5t-20.5 46.5zM524 535h539v784h-29z" />
<glyph unicode="&#xc7;" horiz-adv-x="1474" d="M115 725q0 162 57.5 304t157.5 242.5t240 158t300 57.5q135 0 258.5 -44.5t204.5 -127.5q27 -27 27 -55q0 -30 -20.5 -51t-53.5 -21q-35 0 -74 39q-57 57 -147.5 94t-192.5 37q-182 0 -321 -88.5t-210 -231t-71 -313.5q0 -127 42 -241.5t118.5 -201.5t191 -138.5 t250.5 -51.5q115 0 218 42.5t174 127.5q32 37 63 37q28 0 48 -19t20 -49q0 -27 -25 -55q-189 -210 -491 -213l-68 -106q24 6 63 6q69 0 116.5 -38t47.5 -116q0 -91 -70.5 -135.5t-170.5 -44.5q-75 0 -148 25q-43 15 -43 51q0 20 12.5 33.5t34.5 13.5q18 0 54 -12 q43 -13 86 -13q59 0 92 21t33 59q0 35 -25 53.5t-68 18.5q-25 0 -49 -6t-43 -6q-22 0 -33.5 12t-11.5 28q0 18 12 37l78 125q-144 14 -267.5 77t-210.5 161.5t-136 232t-49 285.5z" />
<glyph unicode="&#xc8;" horiz-adv-x="1212" d="M193 88v1274q0 88 88 88h753q40 0 56 -21.5t16 -44.5t-16 -44t-56 -21h-694v-500h645q40 0 56 -21t16 -42q0 -23 -16 -44.5t-56 -21.5h-645v-559h719q40 0 55.5 -21t15.5 -44q0 -13 -4.5 -26.5t-21.5 -26.5t-45 -13h-778q-88 0 -88 88zM451 1810q0 27 17 44.5t44 19.5 q32 0 57 -29l162 -186q23 -26 23 -51q0 -23 -16.5 -40.5t-41.5 -17.5q-30 0 -57 29l-166 182q-22 24 -22 49z" />
<glyph unicode="&#xc9;" horiz-adv-x="1212" d="M193 88v1274q0 88 88 88h753q40 0 56 -21.5t16 -44.5t-16 -44t-56 -21h-694v-500h645q40 0 56 -21t16 -42q0 -23 -16 -44.5t-56 -21.5h-645v-559h719q40 0 55.5 -21t15.5 -44q0 -13 -4.5 -26.5t-21.5 -26.5t-45 -13h-778q-88 0 -88 88zM569 1608q0 25 23 51l162 186 q25 29 57 29q27 -2 44 -19.5t17 -44.5q0 -25 -22 -49l-166 -182q-27 -29 -57 -29q-25 0 -41.5 17.5t-16.5 40.5z" />
<glyph unicode="&#xca;" horiz-adv-x="1212" d="M193 88v1274q0 88 88 88h753q40 0 56 -21.5t16 -44.5t-16 -44t-56 -21h-694v-500h645q40 0 56 -21t16 -42q0 -23 -16 -44.5t-56 -21.5h-645v-559h719q40 0 55.5 -21t15.5 -44q0 -13 -4.5 -26.5t-21.5 -26.5t-45 -13h-778q-88 0 -88 88zM379 1602q0 22 20 45l160 174 q48 53 94 53q47 0 95 -53l159 -174q21 -24 21 -45q0 -23 -16 -37.5t-38 -14.5q-25 0 -47 25l-174 184l-174 -184q-22 -25 -47 -25q-22 0 -37.5 14.5t-15.5 37.5z" />
<glyph unicode="&#xcb;" horiz-adv-x="1212" d="M193 88v1274q0 88 88 88h753q40 0 56 -21.5t16 -44.5t-16 -44t-56 -21h-694v-500h645q40 0 56 -21t16 -42q0 -23 -16 -44.5t-56 -21.5h-645v-559h719q40 0 55.5 -21t15.5 -44q0 -13 -4.5 -26.5t-21.5 -26.5t-45 -13h-778q-88 0 -88 88zM352 1735q0 41 30.5 72.5 t74.5 31.5t74 -31.5t30 -72.5t-30 -73t-74 -32t-74.5 32t-30.5 73zM745 1735q0 41 30.5 72.5t74.5 31.5t74 -31.5t30 -72.5t-30 -73t-74 -32t-74.5 32t-30.5 73z" />
<glyph unicode="&#xcc;" horiz-adv-x="532" d="M14 1810q0 27 17.5 44.5t44.5 19.5q32 0 57 -29l162 -186q22 -24 22 -51q0 -23 -16 -40.5t-41 -17.5q-30 0 -57 29l-166 182q-23 26 -23 49zM193 68v1314q0 46 23 64t50 18t50.5 -18t23.5 -64v-1314q0 -46 -23.5 -64t-50.5 -18t-50 18t-23 64z" />
<glyph unicode="&#xcd;" horiz-adv-x="532" d="M193 68v1314q0 46 23 64t50 18t50.5 -18t23.5 -64v-1314q0 -46 -23.5 -64t-50.5 -18t-50 18t-23 64zM213 1608q0 25 23 51l161 186q25 29 58 29q27 -2 44 -19.5t17 -44.5q0 -25 -22 -49l-166 -182q-27 -29 -58 -29q-25 0 -41 17.5t-16 40.5z" />
<glyph unicode="&#xce;" horiz-adv-x="532" d="M-8 1602q0 22 20 45l160 174q48 53 94 53t94 -53l160 -174q21 -24 21 -45q0 -23 -16 -37.5t-38 -14.5q-25 0 -47 25l-174 184l-174 -184q-22 -25 -47 -25q-22 0 -37.5 14.5t-15.5 37.5zM193 68v1314q0 46 23 64t50 18t50.5 -18t23.5 -64v-1314q0 -46 -23.5 -64t-50.5 -18 t-50 18t-23 64z" />
<glyph unicode="&#xcf;" horiz-adv-x="532" d="M-35 1735q0 41 30.5 72.5t74.5 31.5t74 -31.5t30 -72.5t-30 -73t-74 -32t-74.5 32t-30.5 73zM193 68v1314q0 46 23 64t50 18t50.5 -18t23.5 -64v-1314q0 -46 -23.5 -64t-50.5 -18t-50 18t-23 64zM358 1735q0 41 30.5 72.5t74.5 31.5t74 -31.5t30 -72.5t-30 -73t-74 -32 t-74.5 32t-30.5 73z" />
<glyph unicode="&#xd0;" horiz-adv-x="1550" d="M29 766q0 20 13 37.5t48 17.5h103v541q0 88 88 88h393q110 0 218 -28.5t206.5 -88.5t173.5 -144t119.5 -204t44.5 -260t-44.5 -260t-119.5 -204t-173.5 -144t-206.5 -88.5t-218 -28.5h-393q-88 0 -88 88v623h-103q-35 0 -48 17.5t-13 37.5zM340 131h293q158 0 284 50.5 t204 135t118.5 189t40.5 219.5t-40.5 219.5t-118.5 189t-204 135t-284 50.5h-293v-498h481q35 0 48.5 -17.5t13.5 -37.5t-13.5 -37.5t-48.5 -17.5h-481v-580z" />
<glyph unicode="&#xd1;" horiz-adv-x="1564" d="M193 68v1282q0 64 30 89t66 25q30 0 57.5 -18t65.5 -72l809 -1132h4v1140q0 46 23 64t50 18t50.5 -18t23.5 -64v-1282q0 -34 -10 -58t-26.5 -35.5t-31.5 -16t-30 -4.5q-30 0 -56.5 18t-64.5 72l-809 1145h-4v-1153q0 -46 -23.5 -64t-50.5 -18t-50 18t-23 64zM465 1630 q0 22 10 47q53 127 174 127q52 0 148 -49q5 -3 20 -10t21.5 -9.5t19 -8t20 -8t17.5 -6t18.5 -4.5t16.5 -1q28 0 46.5 17t33.5 57q15 41 51 41q53 0 53 -54q0 -22 -10 -47q-53 -127 -174 -127q-52 0 -146 50q-88 47 -135 47q-28 0 -46.5 -17t-33.5 -57q-15 -41 -51 -41 q-53 0 -53 53z" />
<glyph unicode="&#xd2;" horiz-adv-x="1740" d="M115 725q0 162 57.5 304t157.5 242.5t240 158t300 57.5q213 0 386 -98t271.5 -272.5t98.5 -391.5t-98.5 -391.5t-271.5 -272.5t-386 -98q-160 0 -300 57.5t-240 158t-157.5 242.5t-57.5 304zM270 725q0 -127 42 -241.5t117.5 -201t190 -137.5t250.5 -51t250.5 51 t190 137.5t117.5 201t42 241.5q0 171 -71 313.5t-209.5 231t-319.5 88.5t-319.5 -88.5t-209.5 -231t-71 -313.5zM696 1810q0 27 17.5 44.5t44.5 19.5q32 0 57 -29l162 -186q22 -24 22 -51q0 -23 -16 -40.5t-41 -17.5q-30 0 -57 29l-166 182q-23 26 -23 49z" />
<glyph unicode="&#xd3;" horiz-adv-x="1740" d="M115 725q0 162 57.5 304t157.5 242.5t240 158t300 57.5q213 0 386 -98t271.5 -272.5t98.5 -391.5t-98.5 -391.5t-271.5 -272.5t-386 -98q-160 0 -300 57.5t-240 158t-157.5 242.5t-57.5 304zM270 725q0 -127 42 -241.5t117.5 -201t190 -137.5t250.5 -51t250.5 51 t190 137.5t117.5 201t42 241.5q0 171 -71 313.5t-209.5 231t-319.5 88.5t-319.5 -88.5t-209.5 -231t-71 -313.5zM772 1608q0 25 23 51l161 186q25 29 58 29q27 -2 44 -19.5t17 -44.5q0 -25 -22 -49l-166 -182q-27 -29 -58 -29q-25 0 -41 17.5t-16 40.5z" />
<glyph unicode="&#xd4;" horiz-adv-x="1740" d="M115 725q0 162 57.5 304t157.5 242.5t240 158t300 57.5q213 0 386 -98t271.5 -272.5t98.5 -391.5t-98.5 -391.5t-271.5 -272.5t-386 -98q-160 0 -300 57.5t-240 158t-157.5 242.5t-57.5 304zM270 725q0 -127 42 -241.5t117.5 -201t190 -137.5t250.5 -51t250.5 51 t190 137.5t117.5 201t42 241.5q0 171 -71 313.5t-209.5 231t-319.5 88.5t-319.5 -88.5t-209.5 -231t-71 -313.5zM596 1602q0 22 20 45l160 174q48 53 94 53q47 0 95 -53l159 -174q21 -24 21 -45q0 -23 -15.5 -37.5t-37.5 -14.5q-26 0 -48 25l-174 184l-174 -184 q-22 -25 -47 -25q-22 0 -37.5 14.5t-15.5 37.5z" />
<glyph unicode="&#xd5;" horiz-adv-x="1740" d="M115 725q0 162 57.5 304t157.5 242.5t240 158t300 57.5q213 0 386 -98t271.5 -272.5t98.5 -391.5t-98.5 -391.5t-271.5 -272.5t-386 -98q-160 0 -300 57.5t-240 158t-157.5 242.5t-57.5 304zM270 725q0 -127 42 -241.5t117.5 -201t190 -137.5t250.5 -51t250.5 51 t190 137.5t117.5 201t42 241.5q0 171 -71 313.5t-209.5 231t-319.5 88.5t-319.5 -88.5t-209.5 -231t-71 -313.5zM545 1630q0 22 10 47q53 127 174 127q52 0 148 -49q5 -3 20 -10t21.5 -9.5t19 -8t20 -8t17.5 -6t18.5 -4.5t16.5 -1q28 0 46.5 17t33.5 57q15 41 51 41 q53 0 53 -54q0 -22 -10 -47q-53 -127 -174 -127q-52 0 -146 50q-88 47 -135 47q-28 0 -46.5 -17t-33.5 -57q-15 -41 -51 -41q-53 0 -53 53z" />
<glyph unicode="&#xd6;" horiz-adv-x="1740" d="M115 725q0 162 57.5 304t157.5 242.5t240 158t300 57.5q213 0 386 -98t271.5 -272.5t98.5 -391.5t-98.5 -391.5t-271.5 -272.5t-386 -98q-160 0 -300 57.5t-240 158t-157.5 242.5t-57.5 304zM270 725q0 -127 42 -241.5t117.5 -201t190 -137.5t250.5 -51t250.5 51 t190 137.5t117.5 201t42 241.5q0 171 -71 313.5t-209.5 231t-319.5 88.5t-319.5 -88.5t-209.5 -231t-71 -313.5zM569 1735q0 41 30.5 72.5t74.5 31.5t74 -31.5t30 -72.5t-30 -73t-74 -32t-74.5 32t-30.5 73zM963 1735q0 41 30 72.5t74 31.5t74 -31.5t30 -72.5t-30 -73 t-74 -32t-74 32t-30 73z" />
<glyph unicode="&#xd7;" horiz-adv-x="1363" d="M287 283q0 29 22 51l287 287l-285 286q-24 24 -24 54q0 24 16.5 40.5t42.5 16.5t49 -23l287 -286l285 286q23 23 47 23q27 0 44 -17.5t17 -42.5q0 -29 -22 -51l-285 -286l285 -285q22 -22 22 -49q0 -26 -17.5 -44t-43.5 -18t-47 21l-285 286l-287 -286q-23 -23 -47 -23 q-27 0 -44 17.5t-17 42.5z" />
<glyph unicode="&#xd8;" horiz-adv-x="1740" d="M115 725q0 162 57.5 304t157.5 242.5t240 158t300 57.5q278 0 484 -166l125 133q21 21 43 21t36.5 -14t14.5 -36t-19 -41l-124 -135q196 -209 196 -524q0 -217 -98.5 -391.5t-271.5 -272.5t-386 -98q-277 0 -483 166l-123 -131q-21 -21 -43 -21t-36.5 14t-14.5 36 q0 23 18 41l123 133q-196 209 -196 524zM270 725q0 -247 142 -418l850 912q-154 139 -392 139q-181 0 -319.5 -88.5t-209.5 -231t-71 -313.5zM483 231q156 -137 387 -137q136 0 250.5 51t190 137.5t117.5 201t42 241.5q0 246 -137 418z" />
<glyph unicode="&#xd9;" horiz-adv-x="1454" d="M184 541v841q0 46 23.5 64t50.5 18t50.5 -18t23.5 -64v-825q0 -73 12.5 -138t42 -125.5t74 -104t112.5 -69.5t154 -26t154 26t112.5 69.5t74 104t42 125.5t12.5 138v825q0 46 23.5 64t50.5 18t50.5 -18t23.5 -64v-841q0 -79 -14 -154t-52.5 -153.5t-97.5 -137t-156.5 -96 t-222.5 -37.5t-222.5 37.5t-156.5 96t-97.5 137t-52.5 153.5t-14 154zM526 1810q0 27 17.5 44.5t44.5 19.5q32 0 57 -29l162 -186q22 -24 22 -51q0 -23 -16 -40.5t-41 -17.5q-30 0 -57 29l-166 182q-23 26 -23 49z" />
<glyph unicode="&#xda;" horiz-adv-x="1454" d="M184 541v841q0 46 23.5 64t50.5 18t50.5 -18t23.5 -64v-825q0 -73 12.5 -138t42 -125.5t74 -104t112.5 -69.5t154 -26t154 26t112.5 69.5t74 104t42 125.5t12.5 138v825q0 46 23.5 64t50.5 18t50.5 -18t23.5 -64v-841q0 -79 -14 -154t-52.5 -153.5t-97.5 -137t-156.5 -96 t-222.5 -37.5t-222.5 37.5t-156.5 96t-97.5 137t-52.5 153.5t-14 154zM647 1608q0 25 23 51l161 186q25 29 58 29q27 -2 44 -19.5t17 -44.5q0 -25 -22 -49l-166 -182q-27 -29 -57 -29q-25 0 -41.5 17.5t-16.5 40.5z" />
<glyph unicode="&#xdb;" horiz-adv-x="1454" d="M184 541v841q0 46 23.5 64t50.5 18t50.5 -18t23.5 -64v-825q0 -73 12.5 -138t42 -125.5t74 -104t112.5 -69.5t154 -26t154 26t112.5 69.5t74 104t42 125.5t12.5 138v825q0 46 23.5 64t50.5 18t50.5 -18t23.5 -64v-841q0 -79 -14 -154t-52.5 -153.5t-97.5 -137t-156.5 -96 t-222.5 -37.5t-222.5 37.5t-156.5 96t-97.5 137t-52.5 153.5t-14 154zM453 1602q0 22 20 45l160 174q48 53 94 53t94 -53l160 -174q20 -23 20 -45q0 -23 -15.5 -37.5t-37.5 -14.5q-25 0 -47 25l-174 184l-174 -184q-22 -25 -47 -25q-22 0 -37.5 14.5t-15.5 37.5z" />
<glyph unicode="&#xdc;" horiz-adv-x="1454" d="M184 541v841q0 46 23.5 64t50.5 18t50.5 -18t23.5 -64v-825q0 -73 12.5 -138t42 -125.5t74 -104t112.5 -69.5t154 -26t154 26t112.5 69.5t74 104t42 125.5t12.5 138v825q0 46 23.5 64t50.5 18t50.5 -18t23.5 -64v-841q0 -79 -14 -154t-52.5 -153.5t-97.5 -137t-156.5 -96 t-222.5 -37.5t-222.5 37.5t-156.5 96t-97.5 137t-52.5 153.5t-14 154zM428 1735q0 41 30 72.5t74 31.5t74.5 -31.5t30.5 -72.5t-30.5 -73t-74.5 -32t-74 32t-30 73zM821 1735q0 41 30.5 72.5t74.5 31.5t74 -31.5t30 -72.5t-30 -73t-74 -32t-74.5 32t-30.5 73z" />
<glyph unicode="&#xdd;" horiz-adv-x="1232" d="M33 1391q0 32 22.5 52.5t55.5 20.5q40 0 69 -45l441 -671l446 675q27 41 66 41q28 0 49.5 -18t21.5 -49q0 -25 -16 -49l-498 -723v-557q0 -46 -23.5 -64t-50.5 -18t-50 18t-23 64v557l-492 712q-18 30 -18 54zM573 1608q0 25 23 51l162 186q25 29 57 29q27 -2 44.5 -19.5 t17.5 -44.5q0 -23 -23 -49l-166 -182q-27 -29 -57 -29q-25 0 -41.5 17.5t-16.5 40.5z" />
<glyph unicode="&#xde;" d="M193 68v1314q0 46 23 64t50 18t50.5 -18t23.5 -64v-249h262q228 0 359 -99t131 -289t-133 -289.5t-361 -99.5h-258v-288q0 -46 -23.5 -64t-50.5 -18t-50 18t-23 64zM340 485h238q173 0 263.5 66t90.5 194q0 256 -354 256h-238v-516z" />
<glyph unicode="&#xdf;" horiz-adv-x="1222" d="M180 61v1053q0 68 12 130t42.5 123.5t77.5 106t123.5 72t174.5 27.5q163 0 278.5 -99t115.5 -264q0 -240 -238 -325v-4q156 -19 253 -135t97 -289q0 -219 -133.5 -350.5t-357.5 -131.5q-39 0 -70 5q-57 9 -57 59q0 26 15.5 41.5t45.5 15.5q6 0 25.5 -1t25.5 -1 q164 0 262.5 98t98.5 267q0 165 -96.5 257t-266.5 101q-39 3 -52 22t-13 40q0 57 65 61q117 10 185.5 73.5t68.5 184.5q0 118 -74 185t-184 67q-69 0 -121.5 -22t-83 -56t-49 -81t-25 -90t-6.5 -91v-1049q0 -23 -7 -39t-19 -23.5t-22 -10t-21 -2.5q-15 0 -29 4.5t-27.5 22.5 t-13.5 48z" />
<glyph unicode="&#xe0;" horiz-adv-x="1093" d="M113 266q0 62 20 111t52 82t84 57.5t105.5 38t127.5 21t137.5 10t148.5 2.5v30q0 124 -65 186t-191 62q-132 0 -245 -80q-27 -18 -49 -18q-24 0 -40 15.5t-16 41.5q0 28 27 52q56 48 145 77t193 29q163 0 268 -90t105 -258v-420q0 -69 6 -125q4 -32 4 -39q0 -31 -18 -48 t-44 -17q-56 0 -65 69q-6 49 -6 101h-4q-66 -95 -149.5 -138t-199.5 -43q-58 0 -113.5 16t-105.5 49t-81 91.5t-31 134.5zM256 272q0 -65 34.5 -107.5t83 -58.5t107.5 -16q142 0 224.5 92t82.5 226v71h-40q-63 0 -116 -3t-112 -10t-104 -22t-82.5 -37t-57.5 -56.5t-20 -78.5 zM362 1401q0 27 17.5 44t44.5 19q33 0 57 -28l162 -187q23 -26 23 -51q0 -23 -16.5 -40t-41.5 -17q-31 0 -57 28l-166 183q-23 26 -23 49z" />
<glyph unicode="&#xe1;" horiz-adv-x="1093" d="M113 266q0 62 20 111t52 82t84 57.5t105.5 38t127.5 21t137.5 10t148.5 2.5v30q0 124 -65 186t-191 62q-132 0 -245 -80q-27 -18 -49 -18q-24 0 -40 15.5t-16 41.5q0 28 27 52q56 48 145 77t193 29q163 0 268 -90t105 -258v-420q0 -69 6 -125q4 -32 4 -39q0 -31 -18 -48 t-44 -17q-56 0 -65 69q-6 49 -6 101h-4q-66 -95 -149.5 -138t-199.5 -43q-58 0 -113.5 16t-105.5 49t-81 91.5t-31 134.5zM256 272q0 -65 34.5 -107.5t83 -58.5t107.5 -16q142 0 224.5 92t82.5 226v71h-40q-63 0 -116 -3t-112 -10t-104 -22t-82.5 -37t-57.5 -56.5t-20 -78.5 zM461 1198q0 27 22 51l162 187q24 28 57 28q27 -2 44.5 -19t17.5 -44q0 -23 -23 -49l-166 -183q-26 -28 -57 -28q-25 0 -41 17t-16 40z" />
<glyph unicode="&#xe2;" horiz-adv-x="1093" d="M113 266q0 62 20 111t52 82t84 57.5t105.5 38t127.5 21t137.5 10t148.5 2.5v30q0 124 -65 186t-191 62q-132 0 -245 -80q-27 -18 -49 -18q-24 0 -40 15.5t-16 41.5q0 28 27 52q56 48 145 77t193 29q163 0 268 -90t105 -258v-420q0 -69 6 -125q4 -32 4 -39q0 -31 -18 -48 t-44 -17q-56 0 -65 69q-6 49 -6 101h-4q-66 -95 -149.5 -138t-199.5 -43q-58 0 -113.5 16t-105.5 49t-81 91.5t-31 134.5zM256 272q0 -65 34.5 -107.5t83 -58.5t107.5 -16q142 0 224.5 92t82.5 226v71h-40q-63 0 -116 -3t-112 -10t-104 -22t-82.5 -37t-57.5 -56.5t-20 -78.5 zM274 1192q0 21 21 45l160 174q48 53 94 53t94 -53l160 -174q20 -23 20 -45q0 -23 -15.5 -37t-37.5 -14q-26 0 -47 24l-174 185l-174 -185q-21 -24 -47 -24q-22 0 -38 14t-16 37z" />
<glyph unicode="&#xe3;" horiz-adv-x="1093" d="M113 266q0 62 20 111t52 82t84 57.5t105.5 38t127.5 21t137.5 10t148.5 2.5v30q0 124 -65 186t-191 62q-132 0 -245 -80q-27 -18 -49 -18q-24 0 -40 15.5t-16 41.5q0 28 27 52q56 48 145 77t193 29q163 0 268 -90t105 -258v-420q0 -69 6 -125q4 -32 4 -39q0 -31 -18 -48 t-44 -17q-56 0 -65 69q-6 49 -6 101h-4q-66 -95 -149.5 -138t-199.5 -43q-58 0 -113.5 16t-105.5 49t-81 91.5t-31 134.5zM219 1221q0 22 10 47q53 127 174 127q52 0 148 -49q5 -2 27.5 -13t30.5 -14.5t24.5 -10t28 -8.5t22.5 -2q28 0 46.5 17t33.5 57q15 41 51 41 q53 0 53 -53q0 -22 -10 -47q-53 -127 -174 -127q-53 0 -145 49q-88 47 -136 47q-28 0 -46 -17t-33 -57q-15 -41 -52 -41q-53 0 -53 54zM256 272q0 -65 34.5 -107.5t83 -58.5t107.5 -16q142 0 224.5 92t82.5 226v71h-40q-63 0 -116 -3t-112 -10t-104 -22t-82.5 -37 t-57.5 -56.5t-20 -78.5z" />
<glyph unicode="&#xe4;" horiz-adv-x="1093" d="M113 266q0 62 20 111t52 82t84 57.5t105.5 38t127.5 21t137.5 10t148.5 2.5v30q0 124 -65 186t-191 62q-132 0 -245 -80q-27 -18 -49 -18q-24 0 -40 15.5t-16 41.5q0 28 27 52q56 48 145 77t193 29q163 0 268 -90t105 -258v-420q0 -69 6 -125q4 -32 4 -39q0 -31 -18 -48 t-44 -17q-56 0 -65 69q-6 49 -6 101h-4q-66 -95 -149.5 -138t-199.5 -43q-58 0 -113.5 16t-105.5 49t-81 91.5t-31 134.5zM244 1325q0 41 30 73t74 32t74.5 -32t30.5 -73t-30.5 -72.5t-74.5 -31.5t-74 31.5t-30 72.5zM256 272q0 -65 34.5 -107.5t83 -58.5t107.5 -16 q142 0 224.5 92t82.5 226v71h-40q-63 0 -116 -3t-112 -10t-104 -22t-82.5 -37t-57.5 -56.5t-20 -78.5zM637 1325q0 41 30 73t74 32t74.5 -32t30.5 -73t-30.5 -72.5t-74.5 -31.5t-74 31.5t-30 72.5z" />
<glyph unicode="&#xe5;" horiz-adv-x="1093" d="M113 266q0 62 20 111t52 82t84 57.5t105.5 38t127.5 21t137.5 10t148.5 2.5v30q0 124 -65 186t-191 62q-132 0 -245 -80q-27 -18 -49 -18q-24 0 -40 15.5t-16 41.5q0 28 27 52q56 48 145 77t193 29q163 0 268 -90t105 -258v-420q0 -69 6 -125q4 -32 4 -39q0 -31 -18 -48 t-44 -17q-56 0 -65 69q-6 49 -6 101h-4q-66 -95 -149.5 -138t-199.5 -43q-58 0 -113.5 16t-105.5 49t-81 91.5t-31 134.5zM256 272q0 -65 34.5 -107.5t83 -58.5t107.5 -16q142 0 224.5 92t82.5 226v71h-40q-63 0 -116 -3t-112 -10t-104 -22t-82.5 -37t-57.5 -56.5t-20 -78.5 zM346 1331q0 82 58 138.5t139 56.5q80 0 138 -56.5t58 -138.5t-57.5 -138t-138.5 -56t-139 56t-58 138zM420 1331q0 -51 36 -86t87 -35t87 35t36 86t-36 86t-87 35t-87 -35t-36 -86z" />
<glyph unicode="&#xe6;" horiz-adv-x="1781" d="M115 256q0 57 20 102t53 76t85 53t105 34.5t125 20t133.5 9.5t141.5 2v31q0 129 -62.5 205.5t-183.5 76.5q-133 0 -251 -80q-27 -18 -50 -18q-24 0 -39.5 15.5t-15.5 41.5q0 28 27 52q55 46 152.5 76t197.5 30q114 0 197 -53t118 -148q58 92 154.5 146.5t208.5 54.5 q105 0 189 -37t137 -101.5t81.5 -149t28.5 -181.5q0 -72 -76 -72h-684q3 -146 99.5 -248t234.5 -102q74 0 143 31t117 90q25 31 58 31q26 0 43.5 -17t17.5 -45q0 -23 -21 -47q-141 -160 -358 -160q-133 0 -233 60t-148 164q-95 -224 -399 -224q-52 0 -100 9.5t-93.5 31 t-79 53t-53.5 80t-20 107.5zM258 258q0 -170 227 -170q144 0 218.5 76.5t74.5 208.5v69h-41q-71 0 -122.5 -2t-111 -8t-100 -19t-75.5 -32.5t-52.5 -50.5t-17.5 -72zM913 553h613q0 139 -79.5 226t-215.5 87q-125 0 -219 -94.5t-99 -218.5z" />
<glyph unicode="&#xe7;" horiz-adv-x="1024" d="M115 479q0 219 141.5 361.5t370.5 142.5q84 0 166.5 -29.5t142.5 -85.5q27 -27 27 -55q0 -26 -18.5 -43.5t-45.5 -17.5q-29 0 -70 39q-79 75 -200 75q-165 0 -266 -110t-101 -277q0 -166 100.5 -275.5t264.5 -109.5q135 0 229 88q31 27 55 27q27 0 44.5 -17t17.5 -42 q0 -29 -25 -54q-118 -115 -301 -121l-76 -118q24 6 64 6q69 0 116.5 -38t47.5 -116q0 -91 -71 -135.5t-171 -44.5q-74 0 -147 25q-43 15 -43 51q0 20 12.5 33.5t34.5 13.5q17 0 53 -12q43 -13 86 -13q59 0 92 21t33 59q0 35 -24.5 53.5t-67.5 18.5q-25 0 -49 -6t-43 -6 q-22 0 -33.5 12t-11.5 28q0 18 12 37l86 138q-197 25 -314.5 161.5t-117.5 335.5z" />
<glyph unicode="&#xe8;" horiz-adv-x="1171" d="M115 479q0 216 139 360t344 144q207 0 333 -128.5t126 -340.5q0 -72 -76 -72h-721q3 -146 103 -247t247 -101q164 0 277 125q24 27 53 27q26 0 45 -17t19 -45q0 -25 -21 -49q-145 -160 -373 -160q-214 0 -354.5 143.5t-140.5 360.5zM262 553h653q-6 140 -89 226.5 t-228 86.5q-136 0 -231.5 -93t-104.5 -220zM375 1401q0 27 17 44t44 19q34 0 58 -28l161 -187q23 -26 23 -51q0 -23 -16 -40t-41 -17q-32 0 -58 28l-166 183q-22 24 -22 49z" />
<glyph unicode="&#xe9;" horiz-adv-x="1171" d="M115 479q0 216 139 360t344 144q207 0 333 -128.5t126 -340.5q0 -72 -76 -72h-721q3 -146 103 -247t247 -101q164 0 277 125q24 27 53 27q26 0 45 -17t19 -45q0 -25 -21 -49q-145 -160 -373 -160q-214 0 -354.5 143.5t-140.5 360.5zM262 553h653q-6 140 -89 226.5 t-228 86.5q-136 0 -231.5 -93t-104.5 -220zM535 1198q0 27 22 51l162 187q24 28 57 28q27 -2 44.5 -19t17.5 -44q0 -23 -23 -49l-166 -183q-26 -28 -57 -28q-25 0 -41 17t-16 40z" />
<glyph unicode="&#xea;" horiz-adv-x="1171" d="M115 479q0 216 139 360t344 144q207 0 333 -128.5t126 -340.5q0 -72 -76 -72h-721q3 -146 103 -247t247 -101q164 0 277 125q24 27 53 27q26 0 45 -17t19 -45q0 -25 -21 -49q-145 -160 -373 -160q-214 0 -354.5 143.5t-140.5 360.5zM262 553h653q-6 140 -89 226.5 t-228 86.5q-136 0 -231.5 -93t-104.5 -220zM338 1192q0 22 20 45l160 174q48 53 94 53q47 0 95 -53l159 -174q21 -24 21 -45q0 -23 -15.5 -37t-37.5 -14q-27 0 -48 24l-174 185l-174 -185q-21 -24 -47 -24q-22 0 -37.5 14t-15.5 37z" />
<glyph unicode="&#xeb;" horiz-adv-x="1171" d="M115 479q0 216 139 360t344 144q207 0 333 -128.5t126 -340.5q0 -72 -76 -72h-721q3 -146 103 -247t247 -101q164 0 277 125q24 27 53 27q26 0 45 -17t19 -45q0 -25 -21 -49q-145 -160 -373 -160q-214 0 -354.5 143.5t-140.5 360.5zM262 553h653q-6 140 -89 226.5 t-228 86.5q-136 0 -231.5 -93t-104.5 -220zM311 1325q0 41 30.5 73t74.5 32t74 -32t30 -73t-30 -72.5t-74 -31.5t-74.5 31.5t-30.5 72.5zM705 1325q0 41 30 73t74 32t74 -32t30 -73t-30 -72.5t-74 -31.5t-74 31.5t-30 72.5z" />
<glyph unicode="&#xec;" horiz-adv-x="512" d="M2 1401q0 27 17 44t44 19q34 0 58 -28l162 -187q22 -24 22 -51q0 -23 -16 -40t-41 -17q-32 0 -58 28l-165 183q-23 26 -23 49zM186 61v836q0 43 22 59.5t48 16.5q15 0 29 -4.5t27.5 -23t13.5 -48.5v-836q0 -30 -13.5 -48t-27.5 -22.5t-29 -4.5t-29 4.5t-27.5 22.5 t-13.5 48z" />
<glyph unicode="&#xed;" horiz-adv-x="512" d="M186 61v836q0 43 22 59.5t48 16.5q15 0 29 -4.5t27.5 -23t13.5 -48.5v-836q0 -30 -13.5 -48t-27.5 -22.5t-29 -4.5t-29 4.5t-27.5 22.5t-13.5 48zM205 1198q0 27 22 51l162 187q24 28 57 28q27 -2 44.5 -19t17.5 -44q0 -23 -23 -49l-166 -183q-26 -28 -57 -28 q-25 0 -41 17t-16 40z" />
<glyph unicode="&#xee;" horiz-adv-x="512" d="M-14 1192q0 22 20 45l160 174q48 53 94 53t94 -53l160 -174q21 -24 21 -45q0 -23 -16 -37t-38 -14q-26 0 -47 24l-174 185l-174 -185q-21 -24 -47 -24q-22 0 -37.5 14t-15.5 37zM186 61v836q0 43 22 59.5t48 16.5q15 0 29 -4.5t27.5 -23t13.5 -48.5v-836q0 -30 -13.5 -48 t-27.5 -22.5t-29 -4.5t-29 4.5t-27.5 22.5t-13.5 48z" />
<glyph unicode="&#xef;" horiz-adv-x="512" d="M-43 1325q0 41 30 73t74 32t74.5 -32t30.5 -73t-30.5 -72.5t-74.5 -31.5t-74 31.5t-30 72.5zM186 61v836q0 43 22 59.5t48 16.5q15 0 29 -4.5t27.5 -23t13.5 -48.5v-836q0 -30 -13.5 -48t-27.5 -22.5t-29 -4.5t-29 4.5t-27.5 22.5t-13.5 48zM350 1325q0 41 30.5 73 t74.5 32t74 -32t30 -73t-30 -72.5t-74 -31.5t-74.5 31.5t-30.5 72.5z" />
<glyph unicode="&#xf0;" horiz-adv-x="1251" d="M98 479q0 218 143 361t365 143q88 0 160.5 -28.5t146.5 -90.5l5 4q-117 238 -320 420l-199 -102q-16 -8 -32 -8q-21 0 -35.5 14t-14.5 35q0 31 33 47l170 86q-56 49 -125 102q-37 28 -37 60q0 27 18.5 45t45.5 18t57 -24q64 -49 162 -136l182 95q16 8 33 8q21 0 35 -14 t14 -35q0 -31 -33 -47l-151 -80q183 -175 289 -391.5t106 -444.5q0 -77 -16.5 -151t-55.5 -145.5t-96 -125t-145.5 -86.5t-196.5 -33q-222 0 -365 143t-143 361zM246 479q0 -165 98.5 -273t261.5 -108q164 0 263.5 108t99.5 273t-99.5 273t-263.5 108q-163 0 -261.5 -108 t-98.5 -273z" />
<glyph unicode="&#xf1;" horiz-adv-x="1189" d="M180 901q-1 40 21 56t45 16q25 0 45.5 -15t21.5 -57l4 -106h5q39 83 132 135.5t195 52.5q179 0 272 -106t93 -289v-527q0 -30 -13.5 -48t-27.5 -22.5t-29 -4.5t-29 4.5t-27.5 22.5t-13.5 48v469q0 79 -12.5 138t-41.5 105t-80.5 69.5t-125.5 23.5q-120 0 -205 -96.5 t-85 -277.5v-431q0 -30 -13.5 -48t-27.5 -22.5t-29 -4.5t-29 4.5t-27.5 22.5t-13.5 48v687q0 87 -4 153zM276 1221q0 19 11 47q53 127 174 127q51 0 147 -49q5 -2 27.5 -13t30.5 -14.5t24.5 -10t28 -8.5t22.5 -2q28 0 46.5 17t33.5 57q15 41 51 41q54 0 54 -53 q0 -20 -11 -47q-53 -127 -174 -127q-53 0 -145 49q-88 47 -135 47q-28 0 -46.5 -17t-33.5 -57q-15 -41 -51 -41q-25 0 -39.5 14t-14.5 40z" />
<glyph unicode="&#xf2;" horiz-adv-x="1251" d="M115 479q0 218 144 361t366 143q223 0 367.5 -143t144.5 -361t-144.5 -361t-367.5 -143q-222 0 -366 143t-144 361zM262 479q0 -165 100 -275t263 -110q164 0 264 110t100 275t-100 276t-264 111q-162 0 -262.5 -111t-100.5 -276zM381 1401q0 27 17 44t44 19q34 0 58 -28 l162 -187q22 -24 22 -51q0 -23 -16 -40t-41 -17q-32 0 -58 28l-166 183q-22 24 -22 49z" />
<glyph unicode="&#xf3;" horiz-adv-x="1251" d="M115 479q0 218 144 361t366 143q223 0 367.5 -143t144.5 -361t-144.5 -361t-367.5 -143q-222 0 -366 143t-144 361zM262 479q0 -165 100 -275t263 -110q164 0 264 110t100 275t-100 276t-264 111q-162 0 -262.5 -111t-100.5 -276zM561 1198q0 25 23 51l161 187 q24 28 58 28q27 -2 44 -19t17 -44q0 -25 -22 -49l-166 -183q-26 -28 -58 -28q-25 0 -41 17t-16 40z" />
<glyph unicode="&#xf4;" horiz-adv-x="1251" d="M115 479q0 218 144 361t366 143q223 0 367.5 -143t144.5 -361t-144.5 -361t-367.5 -143q-222 0 -366 143t-144 361zM262 479q0 -165 100 -275t263 -110q164 0 264 110t100 275t-100 276t-264 111q-162 0 -262.5 -111t-100.5 -276zM350 1192q0 21 21 45l159 174 q48 53 95 53q46 0 94 -53l160 -174q20 -23 20 -45q0 -23 -15.5 -37t-37.5 -14q-26 0 -47 24l-174 185l-174 -185q-21 -24 -48 -24q-22 0 -37.5 14t-15.5 37z" />
<glyph unicode="&#xf5;" horiz-adv-x="1251" d="M115 479q0 218 144 361t366 143q223 0 367.5 -143t144.5 -361t-144.5 -361t-367.5 -143q-222 0 -366 143t-144 361zM262 479q0 -165 100 -275t263 -110q164 0 264 110t100 275t-100 276t-264 111q-162 0 -262.5 -111t-100.5 -276zM301 1221q0 22 10 47q53 127 174 127 q52 0 148 -49q5 -2 27.5 -13t30.5 -14.5t24.5 -10t28 -8.5t22.5 -2q28 0 46.5 17t33.5 57q15 41 51 41q53 0 53 -53q0 -22 -10 -47q-53 -127 -174 -127q-53 0 -145 49q-88 47 -136 47q-28 0 -46 -17t-33 -57q-15 -41 -52 -41q-53 0 -53 54z" />
<glyph unicode="&#xf6;" horiz-adv-x="1251" d="M115 479q0 218 144 361t366 143q223 0 367.5 -143t144.5 -361t-144.5 -361t-367.5 -143q-222 0 -366 143t-144 361zM262 479q0 -165 100 -275t263 -110q164 0 264 110t100 275t-100 276t-264 111q-162 0 -262.5 -111t-100.5 -276zM324 1325q0 41 30 73t74 32t74 -32 t30 -73t-30 -72.5t-74 -31.5t-74 31.5t-30 72.5zM717 1325q0 41 30 73t74 32t74.5 -32t30.5 -73t-30.5 -72.5t-74.5 -31.5t-74 31.5t-30 72.5z" />
<glyph unicode="&#xf7;" horiz-adv-x="1363" d="M145 621q0 21 14.5 41t53.5 20h938q39 0 53.5 -20t14.5 -41t-14.5 -41.5t-53.5 -20.5h-938q-39 0 -53.5 20.5t-14.5 41.5zM571 289q0 44 31.5 77t79.5 33t79.5 -33t31.5 -77t-31.5 -77.5t-79.5 -33.5t-79.5 33.5t-31.5 77.5zM571 952q0 44 31.5 77.5t79.5 33.5 t79.5 -33.5t31.5 -77.5t-31.5 -77t-79.5 -33t-79.5 33t-31.5 77z" />
<glyph unicode="&#xf8;" horiz-adv-x="1251" d="M113 0q0 21 18 39l102 106q-118 137 -118 334q0 218 143 361t365 143q188 0 325 -106l107 108q19 19 37 19q19 0 32 -13t13 -33q0 -19 -19 -38l-104 -107q123 -140 123 -334q0 -217 -145 -360.5t-369 -143.5q-189 0 -322 107l-106 -109q-18 -18 -37 -18t-32 12.5 t-13 32.5zM256 479q0 -149 70 -241l536 550q-39 39 -102 60.5t-135 21.5q-166 0 -267.5 -112t-101.5 -279zM385 168q100 -80 236 -80q167 0 270.5 111.5t103.5 279.5q0 152 -73 240z" />
<glyph unicode="&#xf9;" horiz-adv-x="1189" d="M176 371v526q0 43 22 59.5t48 16.5q11 0 21 -3t22 -10t19 -23.5t7 -39.5v-469q0 -79 12.5 -138t41.5 -105t80.5 -69.5t125.5 -23.5q120 0 205.5 97t85.5 278v430q0 43 22 59.5t48 16.5q15 0 29 -4.5t27.5 -23t13.5 -48.5v-686q0 -88 4 -154q1 -40 -21 -55.5t-45 -15.5 q-65 0 -67 71q-5 97 -5 107h-4q-39 -83 -132 -136t-195 -53q-179 0 -272 106t-93 290zM365 1401q0 27 17 44t44 19q33 0 57 -28l162 -187q23 -26 23 -51q0 -23 -16.5 -40t-41.5 -17q-31 0 -57 28l-166 183q-22 24 -22 49z" />
<glyph unicode="&#xfa;" horiz-adv-x="1189" d="M176 371v526q0 43 22 59.5t48 16.5q11 0 21 -3t22 -10t19 -23.5t7 -39.5v-469q0 -79 12.5 -138t41.5 -105t80.5 -69.5t125.5 -23.5q120 0 205.5 97t85.5 278v430q0 43 22 59.5t48 16.5q15 0 29 -4.5t27.5 -23t13.5 -48.5v-686q0 -88 4 -154q1 -40 -21 -55.5t-45 -15.5 q-65 0 -67 71q-5 97 -5 107h-4q-39 -83 -132 -136t-195 -53q-179 0 -272 106t-93 290zM514 1198q0 25 23 51l161 187q24 28 58 28q27 -2 44 -19t17 -44q0 -25 -22 -49l-166 -183q-26 -28 -58 -28q-25 0 -41 17t-16 40z" />
<glyph unicode="&#xfb;" horiz-adv-x="1189" d="M176 371v526q0 43 22 59.5t48 16.5q11 0 21 -3t22 -10t19 -23.5t7 -39.5v-469q0 -79 12.5 -138t41.5 -105t80.5 -69.5t125.5 -23.5q120 0 205.5 97t85.5 278v430q0 43 22 59.5t48 16.5q15 0 29 -4.5t27.5 -23t13.5 -48.5v-686q0 -88 4 -154q1 -40 -21 -55.5t-45 -15.5 q-65 0 -67 71q-5 97 -5 107h-4q-39 -83 -132 -136t-195 -53q-179 0 -272 106t-93 290zM317 1192q0 21 21 45l160 174q48 53 94 53t94 -53l160 -174q20 -23 20 -45q0 -23 -15.5 -37t-37.5 -14q-26 0 -47 24l-174 185l-174 -185q-21 -24 -47 -24q-22 0 -38 14t-16 37z" />
<glyph unicode="&#xfc;" horiz-adv-x="1189" d="M176 371v526q0 43 22 59.5t48 16.5q11 0 21 -3t22 -10t19 -23.5t7 -39.5v-469q0 -79 12.5 -138t41.5 -105t80.5 -69.5t125.5 -23.5q120 0 205.5 97t85.5 278v430q0 43 22 59.5t48 16.5q15 0 29 -4.5t27.5 -23t13.5 -48.5v-686q0 -88 4 -154q1 -40 -21 -55.5t-45 -15.5 q-65 0 -67 71q-5 97 -5 107h-4q-39 -83 -132 -136t-195 -53q-179 0 -272 106t-93 290zM291 1325q0 41 30 73t74 32t74.5 -32t30.5 -73t-30.5 -72.5t-74.5 -31.5t-74 31.5t-30 72.5zM684 1325q0 41 30 73t74 32t74.5 -32t30.5 -73t-30.5 -72.5t-74.5 -31.5t-74 31.5t-30 72.5 z" />
<glyph unicode="&#xfd;" horiz-adv-x="999" d="M53 905q0 29 21 48.5t51 19.5q49 0 70 -55l319 -768h4l293 768q20 55 68 55q31 0 51 -19t20 -47q0 -16 -8 -37l-453 -1118q-32 -80 -67.5 -130t-94.5 -82t-139 -32q-48 0 -82 9q-51 15 -51 61q0 25 17 42.5t43 17.5q2 0 32 -5q16 -2 35 -2q66 0 108.5 42t74.5 128l77 201 l-381 864q-8 21 -8 39zM438 1198q0 25 23 51l162 187q24 28 57 28q27 -2 44 -19t17 -44q0 -25 -22 -49l-166 -183q-26 -28 -57 -28q-25 0 -41.5 17t-16.5 40z" />
<glyph unicode="&#xfe;" horiz-adv-x="1304" d="M188 -430v1917q0 43 22 59.5t48 16.5q15 0 29 -4.5t27.5 -23t13.5 -48.5v-694h4q60 91 158 140.5t204 49.5q146 0 260 -67t175 -181.5t61 -255.5t-61 -255.5t-175 -181.5t-260 -67q-106 0 -204 49t-158 138h-4v-592q0 -43 -22 -59.5t-48 -16.5q-15 0 -29 4.5t-27.5 23 t-13.5 48.5zM311 479q0 -165 104.5 -275t264.5 -110q168 0 265 109.5t97 275.5t-97 276.5t-265 110.5q-160 0 -264.5 -111t-104.5 -276z" />
<glyph unicode="&#xff;" horiz-adv-x="999" d="M53 905q0 29 21 48.5t51 19.5q49 0 70 -55l319 -768h4l293 768q20 55 68 55q31 0 51 -19t20 -47q0 -16 -8 -37l-453 -1118q-32 -80 -67.5 -130t-94.5 -82t-139 -32q-48 0 -82 9q-51 15 -51 61q0 25 17 42.5t43 17.5q2 0 32 -5q16 -2 35 -2q66 0 108.5 42t74.5 128l77 201 l-381 864q-8 21 -8 39zM215 1325q0 41 30 73t74 32t74.5 -32t30.5 -73t-30.5 -72.5t-74.5 -31.5t-74 31.5t-30 72.5zM608 1325q0 41 30.5 73t74.5 32t74 -32t30 -73t-30 -72.5t-74 -31.5t-74.5 31.5t-30.5 72.5z" />
<glyph unicode="&#x152;" horiz-adv-x="2000" d="M115 725q0 140 44.5 260t119.5 204t173.5 144t206.5 88.5t218 28.5h946q40 0 55.5 -21.5t15.5 -44.5q0 -13 -4.5 -26t-21.5 -26t-45 -13h-625v-500h576q40 0 55.5 -21t15.5 -42q0 -13 -4.5 -26.5t-21.5 -26.5t-45 -13h-576v-559h649q40 0 56 -21t16 -44t-16 -44.5 t-56 -21.5h-970q-110 0 -218 28.5t-206.5 88.5t-173.5 144t-119.5 204t-44.5 260zM270 725q0 -115 41 -219.5t118.5 -189t204 -135t284.5 -50.5h133v1188h-133q-158 0 -284.5 -50.5t-204 -135t-118.5 -189t-41 -219.5z" />
<glyph unicode="&#x153;" horiz-adv-x="2035" d="M115 479q0 218 143 361t365 143q143 0 253.5 -61.5t176.5 -171.5q64 109 170 171t237 62q207 0 334 -128.5t127 -340.5q0 -72 -76 -72h-725q3 -145 105.5 -246.5t249.5 -101.5q161 0 274 125q24 27 53 27q26 0 45 -17t19 -45q0 -25 -21 -49q-145 -160 -372 -160 q-137 0 -245.5 62t-172.5 172q-66 -110 -177.5 -172t-254.5 -62q-222 0 -365 143t-143 361zM258 479q0 -164 101 -274.5t264 -110.5q164 0 265 110t101 275t-101 276t-265 111q-163 0 -264 -111t-101 -276zM1126 553h654q-6 140 -89.5 226.5t-228.5 86.5q-136 0 -231.5 -93 t-104.5 -220z" />
<glyph unicode="&#x178;" horiz-adv-x="1232" d="M33 1391q0 32 22.5 52.5t55.5 20.5q40 0 69 -45l441 -671l446 675q27 41 66 41q28 0 49.5 -18t21.5 -49q0 -25 -16 -49l-498 -723v-557q0 -46 -23.5 -64t-50.5 -18t-50 18t-23 64v557l-492 712q-18 30 -18 54zM319 1735q0 41 30.5 72.5t74.5 31.5t74 -31.5t30 -72.5 t-30 -73t-74 -32t-74.5 32t-30.5 73zM713 1735q0 41 30 72.5t74 31.5t74.5 -31.5t30.5 -72.5t-30.5 -73t-74.5 -32t-74 32t-30 73z" />
<glyph unicode="&#x2c6;" horiz-adv-x="491" d="M-29 1192q0 21 21 45l160 174q48 53 94 53t94 -53l160 -174q20 -23 20 -45q0 -23 -15.5 -37t-37.5 -14q-26 0 -47 24l-174 185l-174 -185q-21 -24 -47 -24q-22 0 -38 14t-16 37z" />
<glyph unicode="&#x2dc;" horiz-adv-x="491" d="M-80 1221q0 22 10 47q53 127 174 127q52 0 148 -49q5 -2 27.5 -13t30.5 -14.5t24.5 -10t28 -8.5t22.5 -2q28 0 46.5 17t33.5 57q15 41 51 41q53 0 53 -53q0 -22 -10 -47q-53 -127 -174 -127q-53 0 -145 49q-88 47 -136 47q-28 0 -46 -17t-33 -57q-15 -41 -52 -41 q-53 0 -53 54z" />
<glyph unicode="&#x2000;" horiz-adv-x="967" />
<glyph unicode="&#x2001;" horiz-adv-x="1935" />
<glyph unicode="&#x2002;" horiz-adv-x="967" />
<glyph unicode="&#x2003;" horiz-adv-x="1935" />
<glyph unicode="&#x2004;" horiz-adv-x="645" />
<glyph unicode="&#x2005;" horiz-adv-x="483" />
<glyph unicode="&#x2006;" horiz-adv-x="322" />
<glyph unicode="&#x2007;" horiz-adv-x="322" />
<glyph unicode="&#x2008;" horiz-adv-x="241" />
<glyph unicode="&#x2009;" horiz-adv-x="387" />
<glyph unicode="&#x200a;" horiz-adv-x="107" />
<glyph unicode="&#x2010;" horiz-adv-x="655" d="M84 498q0 20 15 38.5t51 18.5h356q36 0 50.5 -18.5t14.5 -38.5q0 -22 -14.5 -41t-50.5 -19h-356q-36 0 -51 19.5t-15 40.5z" />
<glyph unicode="&#x2011;" horiz-adv-x="655" d="M84 498q0 20 15 38.5t51 18.5h356q36 0 50.5 -18.5t14.5 -38.5q0 -22 -14.5 -41t-50.5 -19h-356q-36 0 -51 19.5t-15 40.5z" />
<glyph unicode="&#x2012;" horiz-adv-x="655" d="M84 498q0 20 15 38.5t51 18.5h356q36 0 50.5 -18.5t14.5 -38.5q0 -22 -14.5 -41t-50.5 -19h-356q-36 0 -51 19.5t-15 40.5z" />
<glyph unicode="&#x2013;" horiz-adv-x="819" d="M47 498q0 20 15 38.5t51 18.5h594q36 0 50.5 -18.5t14.5 -38.5q0 -22 -14.5 -41t-50.5 -19h-594q-36 0 -51 19.5t-15 40.5z" />
<glyph unicode="&#x2014;" horiz-adv-x="1228" d="M47 498q0 20 15 38.5t51 18.5h1003q36 0 51 -18.5t15 -38.5q0 -21 -15 -40.5t-51 -19.5h-1003q-36 0 -51 19.5t-15 40.5z" />
<glyph unicode="&#x2018;" horiz-adv-x="454" d="M111 1018q0 17 6 35l114 358q16 53 64 53q26 0 44.5 -15t18.5 -42q0 -17 -6 -37l-112 -362q-15 -54 -64 -54q-27 0 -46 18t-19 46z" />
<glyph unicode="&#x2019;" horiz-adv-x="454" d="M94 1012q0 17 6 37l113 362q15 53 63 53q27 0 46.5 -17.5t19.5 -45.5q0 -17 -6 -35l-115 -358q-17 -54 -63 -54q-26 0 -45 15.5t-19 42.5z" />
<glyph unicode="&#x201a;" horiz-adv-x="454" d="M94 -244q0 17 6 37l113 363q15 53 63 53q27 0 46.5 -18t19.5 -46q0 -16 -6 -34l-115 -359q-16 -53 -63 -53q-26 0 -45 15.5t-19 41.5z" />
<glyph unicode="&#x201c;" horiz-adv-x="792" d="M111 1018q0 17 6 35l114 358q16 53 64 53q26 0 44.5 -15t18.5 -42q0 -17 -6 -37l-112 -362q-15 -54 -64 -54q-27 0 -46 18t-19 46zM449 1018q0 17 6 35l114 358q16 53 64 53q26 0 44.5 -15t18.5 -42q0 -17 -6 -37l-112 -362q-15 -54 -64 -54q-27 0 -46 18t-19 46z" />
<glyph unicode="&#x201d;" horiz-adv-x="792" d="M96 1012q0 17 6 37l113 362q15 53 64 53q27 0 46 -17.5t19 -45.5q0 -17 -6 -35l-115 -358q-17 -54 -63 -54q-26 0 -45 15.5t-19 42.5zM434 1012q0 17 6 37l113 362q15 53 63 53q27 0 46.5 -17.5t19.5 -45.5q0 -17 -6 -35l-115 -358q-17 -54 -63 -54q-26 0 -45 15.5 t-19 42.5z" />
<glyph unicode="&#x201e;" horiz-adv-x="792" d="M96 -244q0 17 6 37l113 363q15 53 64 53q27 0 46 -18t19 -46q0 -16 -6 -34l-115 -359q-16 -53 -63 -53q-26 0 -45 15.5t-19 41.5zM434 -244q0 17 6 37l113 363q15 53 63 53q27 0 46.5 -18t19.5 -46q0 -16 -6 -34l-115 -359q-16 -53 -63 -53q-26 0 -45 15.5t-19 41.5z" />
<glyph unicode="&#x2022;" horiz-adv-x="1024" d="M150 725q0 151 105.5 256.5t256.5 105.5t256.5 -105.5t105.5 -256.5t-105.5 -257t-256.5 -106t-256.5 106t-105.5 257z" />
<glyph unicode="&#x2026;" horiz-adv-x="2048" d="M231 98q0 44 31.5 77.5t79.5 33.5t79.5 -33.5t31.5 -77.5t-31.5 -77t-79.5 -33t-79.5 33t-31.5 77zM913 98q0 44 31.5 77.5t79.5 33.5t79.5 -33.5t31.5 -77.5t-31.5 -77t-79.5 -33t-79.5 33t-31.5 77zM1595 98q0 44 31.5 77.5t79.5 33.5t79.5 -33.5t31.5 -77.5t-31.5 -77 t-79.5 -33t-79.5 33t-31.5 77z" />
<glyph unicode="&#x202f;" horiz-adv-x="387" />
<glyph unicode="&#x2039;" horiz-adv-x="645" d="M135 492q0 22 19 49l223 331q22 33 53 33q24 0 40.5 -15.5t16.5 -39.5q0 -22 -14 -45l-205 -313l205 -314q14 -23 14 -45q0 -24 -16.5 -39.5t-40.5 -15.5q-31 0 -53 33l-223 331q-19 27 -19 50z" />
<glyph unicode="&#x203a;" horiz-adv-x="645" d="M158 133q0 22 14 45l205 314l-205 313q-14 23 -14 45q0 24 16.5 39.5t40.5 15.5q31 0 53 -33l224 -331q18 -26 18 -49q0 -24 -18 -50l-224 -331q-22 -33 -53 -33q-24 0 -40.5 15.5t-16.5 39.5z" />
<glyph unicode="&#x205f;" horiz-adv-x="483" />
<glyph unicode="&#x20ac;" d="M29 543q0 19 14.5 37t50.5 18h72q-6 87 -6 115q0 69 8 135h-72q-36 0 -50.5 18.5t-14.5 38.5q0 19 14.5 37.5t50.5 18.5h88q56 248 220 387t389 139q140 0 243 -41q58 -21 58 -66q0 -28 -17.5 -46.5t-46.5 -18.5q-18 0 -39 8q-87 35 -205 35q-174 0 -291.5 -105.5 t-160.5 -291.5h547q36 0 50.5 -18.5t14.5 -37.5q0 -20 -14.5 -38.5t-50.5 -18.5h-566q-10 -68 -10 -133q0 -51 8 -117h459q36 0 51 -18.5t15 -36.5q0 -20 -15 -39t-51 -19h-444q32 -178 158.5 -285.5t299.5 -107.5q128 0 234 53q22 11 39 11q25 0 43 -18t18 -46 q0 -39 -43 -61q-130 -68 -309 -68q-120 0 -224 43.5t-177 117t-121 166.5t-66 195h-86q-36 0 -50.5 19t-14.5 39z" />
<glyph unicode="&#x2122;" horiz-adv-x="2048" d="M133 1395q0 20 13.5 37.5t48.5 17.5h579q35 0 48.5 -17.5t13.5 -37.5t-13.5 -38t-48.5 -18h-225v-680q0 -37 -20 -52t-42 -15t-41.5 14.5t-19.5 52.5v680h-231q-35 0 -48.5 18t-13.5 38zM997 659v725q0 41 23.5 58.5t48.5 17.5q49 0 76 -57l307 -647l301 647q27 57 76 57 q25 0 48.5 -17.5t23.5 -58.5v-725q0 -37 -20 -52t-42 -15t-41.5 14.5t-19.5 52.5v521h-2l-256 -537q-24 -53 -70 -53t-70 53l-258 537h-2v-521q0 -38 -19.5 -52.5t-41.5 -14.5q-13 0 -25.5 4.5t-24.5 20.5t-12 42z" />
<glyph unicode="&#xe000;" horiz-adv-x="972" d="M0 0v973h973v-973h-973z" />
</font>
</defs>
</svg>
